<svg width="44" height="44" viewBox="0 0 44 44" fill="none" xmlns="http://www.w3.org/2000/svg">
<rect width="44" height="44" rx="22" fill="#FBC108" fill-opacity="0.864583"/>
<rect x="1.5" y="1.5" width="41" height="41" rx="20.5" stroke="#FBC108" stroke-opacity="0.864583" stroke-width="3"/>
<path d="M26.375 26.375H17.4545L15.2751 14.3882C15.2489 14.2442 15.173 14.1139 15.0607 14.0202C14.9483 13.9264 14.8066 13.875 14.6602 13.875H13.25" stroke="white" stroke-width="1.5" stroke-linecap="round" stroke-linejoin="round"/>
<path d="M18.25 29.5C19.1129 29.5 19.8125 28.8004 19.8125 27.9375C19.8125 27.0746 19.1129 26.375 18.25 26.375C17.3871 26.375 16.6875 27.0746 16.6875 27.9375C16.6875 28.8004 17.3871 29.5 18.25 29.5Z" stroke="white" stroke-width="1.5" stroke-linecap="round" stroke-linejoin="round"/>
<path d="M26.375 29.5C27.2379 29.5 27.9375 28.8004 27.9375 27.9375C27.9375 27.0746 27.2379 26.375 26.375 26.375C25.5121 26.375 24.8125 27.0746 24.8125 27.9375C24.8125 28.8004 25.5121 29.5 26.375 29.5Z" stroke="white" stroke-width="1.5" stroke-linecap="round" stroke-linejoin="round"/>
<path d="M16.8864 23.25H26.6954C26.9882 23.25 27.2716 23.1473 27.4963 22.9597C27.7211 22.7721 27.8729 22.5116 27.9253 22.2236L28.875 17H15.75" stroke="white" stroke-width="1.5" stroke-linecap="round" stroke-linejoin="round"/>
</svg>
