<svg width="15" height="16" viewBox="0 0 15 16" fill="none" xmlns="http://www.w3.org/2000/svg">
<g clip-path="url(#clip0_1629_6113)">
<path d="M7.5 0.5L9.375 3.3125H8.4375V5.1875H6.5625V3.3125H5.625L7.5 0.5ZM14.0625 7.0625V14.5625H0.9375V7.0625H14.0625ZM15 6.125H0V15.5H15V6.125Z" fill="white"/>
<path d="M7.5 8C7.86934 8 8.23507 8.07275 8.5763 8.21409C8.91753 8.35543 9.22757 8.5626 9.48874 8.82376C9.7499 9.08493 9.95707 9.39497 10.0984 9.7362C10.2398 10.0774 10.3125 10.4432 10.3125 10.8125C10.3125 11.1818 10.2398 11.5476 10.0984 11.8888C9.95707 12.23 9.7499 12.5401 9.48874 12.8012C9.22757 13.0624 8.91753 13.2696 8.5763 13.4109C8.23507 13.5523 7.86934 13.625 7.5 13.625H12.1875V12.6875H13.125V8.9375H12.1875V8H7.5ZM4.6875 10.8125C4.6875 10.0666 4.98382 9.35121 5.51126 8.82376C6.03871 8.29632 6.75408 8 7.5 8H2.8125V8.9375H1.875V12.6875H2.8125V13.625H7.5C6.75408 13.625 6.03871 13.3287 5.51126 12.8012C4.98382 12.2738 4.6875 11.5584 4.6875 10.8125Z" fill="white"/>
</g>
<defs>
<clipPath id="clip0_1629_6113">
<rect width="15" height="15" fill="white" transform="translate(0 0.5)"/>
</clipPath>
</defs>
</svg>
