<svg width="23" height="23" viewBox="0 0 23 23" fill="none" xmlns="http://www.w3.org/2000/svg">
<path fill-rule="evenodd" clip-rule="evenodd" d="M11.3004 6.18066C11.866 6.18066 12.3245 6.63919 12.3245 7.2048V10.2772H15.3969C15.9625 10.2772 16.4211 10.7357 16.4211 11.3014C16.4211 11.867 15.9625 12.3255 15.3969 12.3255H12.3245V15.3979C12.3245 15.9635 11.866 16.422 11.3004 16.422C10.7348 16.422 10.2762 15.9635 10.2762 15.3979V12.3255H7.20383C6.63821 12.3255 6.17969 11.867 6.17969 11.3014C6.17969 10.7357 6.63821 10.2772 7.20383 10.2772H10.2762V7.2048C10.2762 6.63919 10.7348 6.18066 11.3004 6.18066Z" fill="#A8A8A8"/>
<path fill-rule="evenodd" clip-rule="evenodd" d="M11.3007 2.08392C6.21013 2.08392 2.08343 6.21062 2.08343 11.3012C2.08343 16.3917 6.21013 20.5184 11.3007 20.5184C16.3912 20.5184 20.5179 16.3917 20.5179 11.3012C20.5179 6.21062 16.3912 2.08392 11.3007 2.08392ZM0.0351562 11.3012C0.0351562 5.07939 5.0789 0.0356445 11.3007 0.0356445C17.5224 0.0356445 22.5662 5.07939 22.5662 11.3012C22.5662 17.5229 17.5224 22.5667 11.3007 22.5667C5.0789 22.5667 0.0351562 17.5229 0.0351562 11.3012Z" fill="#A8A8A8"/>
</svg>
