<svg width="14" height="14" viewBox="0 0 14 14" fill="none" xmlns="http://www.w3.org/2000/svg">
<path d="M13.2754 6.57461L6.63438 0.810742C6.5834 0.766797 6.51836 0.742188 6.4498 0.742188H4.89414C4.76406 0.742188 4.7043 0.903906 4.80273 0.988281L10.9586 6.33203H0.671875C0.594531 6.33203 0.53125 6.39531 0.53125 6.47266V7.52734C0.53125 7.60469 0.594531 7.66797 0.671875 7.66797H10.9568L4.80098 13.0117C4.70254 13.0979 4.7623 13.2578 4.89238 13.2578H6.50078C6.53418 13.2578 6.56758 13.2455 6.59219 13.2227L13.2754 7.42539C13.3362 7.37247 13.385 7.30712 13.4185 7.23373C13.4519 7.16035 13.4692 7.08064 13.4692 7C13.4692 6.91936 13.4519 6.83965 13.4185 6.76627C13.385 6.69288 13.3362 6.62753 13.2754 6.57461Z" fill="black"/>
</svg>
