<svg width="35" height="35" viewBox="0 0 35 35" fill="none" xmlns="http://www.w3.org/2000/svg">
<rect width="35" height="35" rx="17.25" fill="#FBC108" fill-opacity="0.0646"/>
<path d="M17.8824 25.2941L17.6912 23H17.5C15.6902 23 14.1544 22.3691 12.8926 21.1074C11.6309 19.8456 11 18.3098 11 16.5C11 14.6902 11.6309 13.1544 12.8926 11.8926C14.1544 10.6309 15.6902 10 17.5 10C18.4049 10 19.2491 10.1687 20.0327 10.5062C20.8168 10.8442 21.5053 11.3094 22.0982 11.9018C22.6906 12.4947 23.1555 13.183 23.493 13.9665C23.831 14.7506 24 15.5951 24 16.5C24 18.4373 23.4201 20.1736 22.2603 21.7092C21.1005 23.2452 19.6412 24.4402 17.8824 25.2941ZM17.4809 20.6868C17.6975 20.6868 17.8824 20.6103 18.0353 20.4574C18.1882 20.3044 18.2647 20.1196 18.2647 19.9029C18.2647 19.6863 18.1882 19.5015 18.0353 19.3485C17.8824 19.1956 17.6975 19.1191 17.4809 19.1191C17.2642 19.1191 17.0794 19.1956 16.9265 19.3485C16.7735 19.5015 16.6971 19.6863 16.6971 19.9029C16.6971 20.1196 16.7735 20.3044 16.9265 20.4574C17.0794 20.6103 17.2642 20.6868 17.4809 20.6868ZM17.5 18.2588C17.6402 18.2588 17.7676 18.2078 17.8824 18.1059C17.9971 18.0039 18.0735 17.8637 18.1118 17.6853C18.1373 17.5196 18.2074 17.3697 18.3221 17.2356C18.4368 17.1021 18.6343 16.8951 18.9147 16.6147C19.1441 16.3853 19.3353 16.1368 19.4882 15.8691C19.6412 15.6015 19.7176 15.3147 19.7176 15.0088C19.7176 14.3588 19.4979 13.8712 19.0585 13.5459C18.6185 13.2212 18.099 13.0588 17.5 13.0588C17.0539 13.0588 16.6685 13.1608 16.3438 13.3647C16.0185 13.5686 15.7539 13.8235 15.55 14.1294C15.4608 14.2696 15.4447 14.4162 15.5018 14.5691C15.5594 14.7221 15.6775 14.8304 15.8559 14.8941C15.9833 14.9451 16.1108 14.9451 16.2382 14.8941C16.3657 14.8431 16.4804 14.7475 16.5824 14.6074C16.6843 14.4672 16.8087 14.3525 16.9555 14.2632C17.1018 14.174 17.2833 14.1294 17.5 14.1294C17.8441 14.1294 18.1023 14.225 18.2746 14.4162C18.4465 14.6074 18.5324 14.8176 18.5324 15.0471C18.5324 15.2637 18.4686 15.458 18.3412 15.6298C18.2137 15.8021 18.0608 15.9775 17.8824 16.1559C17.5255 16.4618 17.2864 16.7103 17.1651 16.9015C17.0442 17.0926 16.9711 17.3539 16.9456 17.6853C16.9328 17.8382 16.9808 17.9721 17.0894 18.0868C17.1974 18.2015 17.3343 18.2588 17.5 18.2588Z" fill="#FFC700"/>
</svg>
