<svg width="16" height="16" viewBox="0 0 16 16" fill="none" xmlns="http://www.w3.org/2000/svg">
<g clip-path="url(#clip0_1629_6108)">
<path d="M8 15.5L6.125 12.6875H7.0625V10.8125H8.9375V12.6875H9.875L8 15.5ZM14.5625 1.4375V8.9375H1.4375V1.4375H14.5625ZM15.5 0.5H0.5V9.875H15.5V0.5Z" fill="white"/>
<path d="M8 2.375C8.74592 2.375 9.46129 2.67132 9.98874 3.19876C10.5162 3.72621 10.8125 4.44158 10.8125 5.1875C10.8125 5.93342 10.5162 6.64879 9.98874 7.17624C9.46129 7.70368 8.74592 8 8 8H12.6875V7.0625H13.625V3.3125H12.6875V2.375H8ZM5.1875 5.1875C5.1875 4.44158 5.48382 3.72621 6.01126 3.19876C6.53871 2.67132 7.25408 2.375 8 2.375H3.3125V3.3125H2.375V7.0625H3.3125V8H8C7.25408 8 6.53871 7.70368 6.01126 7.17624C5.48382 6.64879 5.1875 5.93342 5.1875 5.1875Z" fill="white"/>
</g>
<defs>
<clipPath id="clip0_1629_6108">
<rect width="15" height="15" fill="white" transform="translate(0.5 0.5)"/>
</clipPath>
</defs>
</svg>
