<svg width="535" height="521" viewBox="0 0 535 521" fill="none" xmlns="http://www.w3.org/2000/svg">
<path d="M532.604 252.866C526.837 193.081 496.811 133.441 470.904 100.498C361.12 -39.1119 140.773 -38.8447 35.8318 136.513C6.22873 185.967 -12.3525 295.929 9.63548 377.256C37.7689 481.351 148.633 521.887 271.921 520.985C387.116 520.095 477.695 470.007 511.607 400.814C532.826 357.473 538.371 312.651 532.604 252.866Z" fill="white"/>
<path d="M35.8318 136.513C6.22873 185.967 -12.3525 295.929 9.63548 377.256C14.2654 394.717 21.723 411.303 31.7125 426.354L154.177 355.692L258.439 295.417L503.502 153.948C493.304 132.795 481.747 114.292 470.904 100.509C361.12 -39.1119 140.773 -38.8447 35.8318 136.513Z" fill="#263238"/>
<g opacity="0.2">
<path d="M36.0209 220.502C37.2712 219.687 38.3118 218.589 39.0584 217.297C39.8051 216.005 40.2367 214.555 40.3183 213.065V204.381C40.3183 201.642 38.3923 200.529 36.0209 201.899L7.6648 218.275C6.36222 224.955 5.20438 231.869 4.20239 238.872L36.0209 220.502Z" fill="black"/>
<path d="M25.9121 156.297L36.021 150.452C37.2713 149.638 38.3119 148.54 39.0585 147.247C39.8052 145.955 40.2368 144.505 40.3184 143.015V134.332C40.3846 133.772 40.286 133.205 40.0349 132.701C39.7837 132.197 39.3909 131.777 38.9045 131.493C37.8728 133.148 36.8486 134.821 35.8317 136.514C32.0738 142.872 28.7594 149.482 25.9121 156.297Z" fill="black"/>
<path d="M79.1956 79.9127L87.7681 74.9584C89.0146 74.1459 90.0522 73.0512 90.7968 71.7631C91.5415 70.4749 91.9723 69.0294 92.0543 67.5438C87.6605 71.4701 83.3742 75.593 79.1956 79.9127Z" fill="black"/>
<path d="M40.3182 304.435V295.751C40.3182 293.012 38.3922 291.899 36.0208 293.268L0.394775 313.864C0.632282 319.832 1.03308 325.784 1.59715 331.722L36.0208 311.849C37.2682 311.037 38.307 309.942 39.0535 308.654C39.8 307.366 40.2332 305.921 40.3182 304.435Z" fill="black"/>
<path d="M143.767 174.745V166.061C143.767 163.322 141.841 162.209 139.47 163.578L99.7247 186.524C98.4759 187.339 97.437 188.437 96.6922 189.729C95.9475 191.022 95.518 192.471 95.4385 193.96V202.644C95.4385 205.383 97.3534 206.496 99.7247 205.127L139.47 182.182C140.72 181.367 141.761 180.269 142.508 178.977C143.254 177.685 143.686 176.235 143.767 174.745Z" fill="black"/>
<path d="M10.6484 380.763C11.4946 383.625 12.3852 386.452 13.3538 389.225V383.792C13.3538 381.71 12.2293 380.574 10.6484 380.763Z" fill="black"/>
<path d="M10.9267 279.04C12.1755 278.225 13.2145 277.126 13.9592 275.834C14.704 274.542 15.1335 273.092 15.213 271.603V262.919C15.213 260.18 13.2981 259.067 10.9267 260.437L1.26317 266.036C0.758463 272.405 0.413336 278.806 0.227783 285.241L10.9267 279.04Z" fill="black"/>
<path d="M151.405 129.678L191.139 106.732C192.389 105.918 193.43 104.82 194.177 103.528C194.923 102.235 195.355 100.786 195.436 99.2954V90.6004C195.436 87.8728 193.51 86.7595 191.139 88.1289L151.405 111.074C150.155 111.889 149.114 112.987 148.367 114.279C147.621 115.571 147.189 117.021 147.107 118.511V127.195C147.107 129.934 149.033 131.047 151.405 129.678Z" fill="black"/>
<path d="M178.002 274.141L217.747 251.196C218.995 250.382 220.034 249.286 220.779 247.996C221.523 246.705 221.953 245.258 222.034 243.77V235.075C222.034 232.336 220.119 231.234 217.747 232.604L178.002 255.549C176.754 256.363 175.716 257.459 174.971 258.749C174.226 260.04 173.796 261.487 173.716 262.975V271.67C173.716 274.409 175.631 275.511 178.002 274.141Z" fill="black"/>
<path d="M74.5971 105.33L114.331 82.3396C115.582 81.5248 116.622 80.4268 117.369 79.1347C118.115 77.8426 118.547 76.3927 118.629 74.9026V66.2188C118.629 63.48 116.703 62.3667 114.331 63.7361L74.5971 86.726C73.3448 87.5396 72.302 88.637 71.5533 89.9292C70.8047 91.2214 70.3714 92.6719 70.2886 94.163V102.847C70.2886 105.586 72.2257 106.699 74.5971 105.33Z" fill="black"/>
<path d="M147.107 172.874C147.107 175.613 149.033 176.726 151.405 175.357L191.139 152.412C192.389 151.597 193.43 150.499 194.177 149.207C194.923 147.915 195.355 146.465 195.436 144.975V136.291C195.436 133.552 193.51 132.439 191.139 133.808L151.405 156.754C150.155 157.568 149.114 158.666 148.367 159.958C147.621 161.251 147.189 162.7 147.107 164.191V172.874Z" fill="black"/>
<path d="M87.7344 284.785L48.0225 307.73C46.7722 308.545 45.7316 309.643 44.9849 310.935C44.2383 312.227 43.8067 313.677 43.7251 315.167V323.851C43.7251 326.59 45.6511 327.703 48.0225 326.333L87.7678 303.388C89.0166 302.573 90.0556 301.474 90.8003 300.182C91.545 298.89 91.9746 297.44 92.0541 295.951V287.267C92.0207 284.529 90.1058 283.415 87.7344 284.785Z" fill="black"/>
<path d="M246.86 0.700378C234.935 1.58256 223.087 3.29753 211.401 5.83276L203.107 10.62C201.857 11.4348 200.816 12.5328 200.069 13.8249C199.323 15.117 198.891 16.5669 198.81 18.0569V26.7519C198.81 29.4907 200.736 30.5929 203.107 29.2235L242.852 6.27808C244.835 4.98164 246.264 2.99315 246.86 0.700378Z" fill="black"/>
<path d="M118.629 257.687V249.003C118.629 246.264 116.703 245.151 114.331 246.52L74.5971 269.465C73.3448 270.279 72.302 271.376 71.5533 272.669C70.8047 273.961 70.3714 275.411 70.2886 276.902V285.586C70.2886 288.325 72.2146 289.438 74.586 288.069L114.32 265.123C115.572 264.31 116.615 263.213 117.364 261.92C118.113 260.628 118.546 259.178 118.629 257.687Z" fill="black"/>
<path d="M170.331 319.253V310.569C170.331 307.83 168.416 306.717 166.045 308.086L126.3 331.032C125.049 331.846 124.009 332.944 123.262 334.237C122.515 335.529 122.084 336.979 122.002 338.469V347.152C122.002 349.891 123.928 351.005 126.3 349.635L166.034 326.69C167.285 325.876 168.326 324.778 169.072 323.486C169.819 322.193 170.25 320.743 170.331 319.253Z" fill="black"/>
<path d="M306.511 223.007L346.257 200.061C347.507 199.247 348.548 198.149 349.294 196.857C350.041 195.564 350.472 194.115 350.554 192.624V183.941C350.554 181.202 348.628 180.089 346.257 181.458L306.511 204.403C305.263 205.219 304.224 206.317 303.479 207.609C302.734 208.901 302.305 210.351 302.225 211.84V220.524C302.225 223.263 304.14 224.376 306.511 223.007Z" fill="black"/>
<path d="M333.12 230.41L372.865 207.465C374.114 206.65 375.153 205.551 375.898 204.259C376.643 202.967 377.072 201.517 377.152 200.028V191.344C377.152 188.605 375.237 187.492 372.865 188.861L333.12 211.807C331.87 212.622 330.829 213.72 330.083 215.012C329.336 216.304 328.904 217.754 328.823 219.244V227.928C328.823 230.678 330.804 231.791 333.12 230.41Z" fill="black"/>
<path d="M302.225 100.375V109.059C302.225 111.798 304.14 112.911 306.511 111.542L346.257 88.5965C347.507 87.7817 348.548 86.6837 349.294 85.3916C350.041 84.0995 350.472 82.6496 350.554 81.1595V72.4757C350.554 69.7369 348.628 68.6236 346.257 69.993L306.511 92.9384C305.263 93.7537 304.224 94.8521 303.479 96.1443C302.734 97.4364 302.305 98.886 302.225 100.375Z" fill="black"/>
<path d="M329.179 17.7675C327.928 18.5823 326.888 19.6802 326.141 20.9723C325.395 22.2644 324.963 23.7143 324.881 25.2044V33.8994C324.881 36.627 326.807 37.7403 329.179 36.3709L360.741 18.1015C354.143 15.4889 347.437 13.1509 340.624 11.0876L329.179 17.7675Z" fill="black"/>
<path d="M321.152 61.5317L281.418 84.4771C280.168 85.2919 279.127 86.3899 278.38 87.682C277.634 88.9741 277.202 90.424 277.12 91.9141V100.598C277.12 103.337 279.046 104.45 281.418 103.081L321.152 80.113C322.402 79.2982 323.443 78.2002 324.189 76.9081C324.936 75.616 325.368 74.1661 325.449 72.676V63.9922C325.449 61.2757 323.523 60.1624 321.152 61.5317Z" fill="black"/>
<path d="M377.152 99.9857C377.152 97.2469 375.237 96.1336 372.865 97.503L333.12 120.448C331.87 121.263 330.829 122.361 330.083 123.653C329.336 124.945 328.904 126.395 328.823 127.885V136.569C328.823 139.308 330.749 140.421 333.12 139.052L372.865 116.106C374.114 115.291 375.153 114.193 375.898 112.901C376.643 111.608 377.072 110.159 377.152 108.67V99.9857Z" fill="black"/>
<path d="M476.27 129.277L436.569 152.211C435.319 153.026 434.278 154.124 433.531 155.416C432.785 156.708 432.353 158.158 432.271 159.648V168.343C432.271 171.082 434.186 172.184 436.558 170.815L476.303 147.869C477.553 147.055 478.594 145.957 479.341 144.664C480.087 143.372 480.519 141.922 480.6 140.432V131.749C480.567 129.01 478.641 127.908 476.27 129.277Z" fill="black"/>
<path d="M475.702 106.833L461.63 114.982C460.379 115.797 459.339 116.895 458.592 118.187C457.845 119.479 457.414 120.929 457.332 122.419V131.103C457.332 133.842 459.258 134.955 461.63 133.586L484.787 120.226C481.751 115.453 478.723 110.989 475.702 106.833Z" fill="black"/>
<path d="M273.747 168.276V159.592C273.747 156.854 271.821 155.74 269.45 157.11L229.704 180.055C228.457 180.872 227.419 181.971 226.674 183.262C225.929 184.554 225.499 186.003 225.418 187.492V196.176C225.418 198.915 227.344 200.028 229.704 198.659L269.45 175.713C270.7 174.898 271.74 173.801 272.487 172.508C273.234 171.216 273.665 169.766 273.747 168.276Z" fill="black"/>
<path d="M424.567 67.6995L384.822 90.6449C383.573 91.4603 382.534 92.5586 381.79 93.8508C381.045 95.143 380.615 96.5926 380.536 98.0819V106.766C380.536 109.504 382.451 110.618 384.822 109.248L424.567 86.303C425.818 85.4882 426.858 84.3903 427.605 83.0982C428.352 81.806 428.783 80.3562 428.865 78.8661V70.1822C428.865 67.4435 426.939 66.3302 424.567 67.6995Z" fill="black"/>
<path d="M242.852 241.065L203.107 264.01C201.857 264.825 200.816 265.923 200.069 267.215C199.323 268.507 198.891 269.957 198.81 271.447V280.131C198.81 282.87 200.736 283.983 203.107 282.614L242.852 259.668C244.103 258.854 245.143 257.756 245.89 256.463C246.636 255.171 247.068 253.722 247.15 252.231V243.548C247.139 240.809 245.212 239.696 242.852 241.065Z" fill="black"/>
<path d="M35.6648 407.338C36.9136 406.523 37.9526 405.425 38.6973 404.132C39.442 402.84 39.8716 401.391 39.9511 399.901V391.218C39.9511 388.479 38.0362 387.365 35.6648 388.735L17.2617 399.356C19.3508 404.324 21.688 409.184 24.2645 413.918L35.6648 407.338Z" fill="black"/>
<path d="M405.63 152.233V160.917C405.63 163.656 407.556 164.769 409.928 163.4L449.662 140.455C450.912 139.64 451.953 138.542 452.699 137.25C453.446 135.958 453.877 134.508 453.959 133.018V124.334C453.959 121.595 452.033 120.482 449.662 121.851L409.928 144.796C408.677 145.611 407.637 146.709 406.89 148.001C406.143 149.293 405.712 150.743 405.63 152.233Z" fill="black"/>
</g>
<path opacity="0.15" d="M176.599 431.174C176.155 430.92 175.698 430.689 175.23 430.484L175.397 430.384L97.4648 387.744V359.054L79.9189 369.174V397.864L152.218 437.42C152.373 439.402 153.754 441.372 156.381 442.886C161.948 446.115 170.999 446.115 176.588 442.886C179.394 441.283 180.785 439.145 180.785 437.019C180.785 434.893 179.394 432.777 176.599 431.174Z" fill="black"/>
<path opacity="0.15" d="M153.721 444.979C153.274 444.723 152.813 444.492 152.34 444.289L152.507 444.189L74.5751 401.549V372.914L57.0515 382.934V411.624L129.35 451.18C129.506 453.162 130.875 455.133 133.514 456.647C139.08 459.875 148.132 459.875 153.721 456.647C156.526 455.032 157.918 452.906 157.918 450.78C157.918 448.653 156.526 446.582 153.721 444.979Z" fill="black"/>
<path opacity="0.15" d="M418.957 495.691C411.209 491.03 402.844 487.485 394.107 485.159C382.908 481.952 369.615 479.592 360.129 475.707C347.749 470.663 342.205 463.193 341.837 454.91C341.626 450.223 343.619 444.69 353.616 439.736C356.543 438.271 359.65 437.197 362.857 436.54C367.336 435.717 371.926 435.683 376.417 436.44C396.59 439.424 406.109 447.195 413.869 454.955C421.629 462.714 430.246 466.611 445.598 472.768C452.167 475.384 459.158 477.867 465.404 480.561L465.549 480.628C468.684 481.826 471.737 483.228 474.689 484.825C478.764 487.385 482.427 490.113 484.241 493.297C486.056 496.481 485.922 500.177 482.56 504.107C481.449 505.435 480.026 506.468 478.419 507.113C476.379 507.933 474.254 508.523 472.084 508.872C467.818 509.646 463.479 509.941 459.147 509.752C455.715 509.574 452.304 509.108 448.949 508.36C438.241 506.069 428.064 501.77 418.957 495.691Z" fill="black"/>
<path d="M94.2919 354.868L100.014 358.208L88.5472 378.013L82.8247 374.674C81.3552 373.827 80.4534 372.013 80.4534 369.43C80.6043 366.618 81.4158 363.882 82.822 361.443C84.2283 359.004 86.1897 356.93 88.5472 355.391C90.7961 354.133 92.8223 353.988 94.2919 354.868Z" fill="#455A64"/>
<path d="M86.1755 372.77C86.3285 369.958 87.1421 367.221 88.5503 364.782C89.9584 362.343 91.9216 360.27 94.2805 358.731C98.7337 356.148 102.385 358.241 102.385 363.407C102.232 366.219 101.419 368.956 100.011 371.395C98.6025 373.834 96.6394 375.907 94.2805 377.446C89.8049 380.029 86.1755 377.936 86.1755 372.77Z" fill="#263238"/>
<g opacity="0.3">
<path d="M88.5471 371.401C88.6546 369.411 89.2299 367.475 90.2261 365.749C91.2223 364.024 92.6114 362.558 94.2807 361.47C97.4425 359.644 100.014 361.125 100.014 364.81C99.9067 366.799 99.3315 368.735 98.3353 370.461C97.3391 372.186 95.9499 373.653 94.2807 374.74C91.1189 376.533 88.5471 375.052 88.5471 371.401Z" fill="black"/>
</g>
<g opacity="0.3">
<path d="M95.9618 362.438C95.8543 364.428 95.2791 366.364 94.2828 368.09C93.2866 369.815 91.8975 371.281 90.2282 372.369C89.7681 372.628 89.2784 372.83 88.7698 372.97C88.6225 372.46 88.5476 371.932 88.5471 371.401C88.6546 369.411 89.2299 367.475 90.2261 365.749C91.2223 364.024 92.6114 362.558 94.2807 361.47C94.7437 361.209 95.2374 361.007 95.7503 360.869C95.8881 361.381 95.9592 361.908 95.9618 362.438Z" fill="black"/>
</g>
<path d="M90.2284 375.141L157.395 413.962C157.705 414.14 157.962 414.396 158.142 414.705C158.322 415.014 158.417 415.364 158.419 415.722V438.7H174.629V418.739V413.562C174.63 411.009 173.958 408.502 172.682 406.291C171.406 404.081 169.57 402.245 167.359 400.97L98.3333 361.08C97.6843 360.778 96.9665 360.655 96.2541 360.724C95.5416 360.792 94.8604 361.05 94.2808 361.47C92.6116 362.558 91.2224 364.024 90.2262 365.749C89.23 367.475 88.6548 369.411 88.5473 371.401C88.4658 372.119 88.5801 372.845 88.878 373.504C89.1759 374.163 89.6463 374.728 90.2395 375.141H90.2284Z" fill="#455A64"/>
<path d="M174.628 414.33C174.624 413.204 174.486 412.083 174.216 410.99C174.272 411.424 174.45 414.519 168.494 416.501C162.059 418.638 158.418 416.501 158.418 416.501V438.711H174.628V419.507V414.33Z" fill="white"/>
<g opacity="0.3">
<path d="M90.2284 375.141L157.395 413.962C157.705 414.14 157.962 414.396 158.142 414.705C158.322 415.014 158.417 415.364 158.419 415.721V438.7H164.431V421.544V419.317C164.427 416.76 163.75 414.25 162.468 412.037C161.186 409.825 159.344 407.989 157.127 406.715L89.4268 367.582C88.9029 368.79 88.6048 370.084 88.5473 371.4C88.4658 372.119 88.5801 372.845 88.878 373.504C89.1759 374.162 89.6463 374.728 90.2395 375.141H90.2284Z" fill="black"/>
</g>
<path d="M177.991 429.46V436.084C177.991 437.787 176.877 439.502 174.651 440.793C172.135 442.072 169.352 442.739 166.529 442.739C163.707 442.739 160.924 442.072 158.408 440.793C156.181 439.502 155.068 437.787 155.068 436.095V429.415H158.486C158.501 429.86 158.608 430.298 158.799 430.7C158.991 431.102 159.263 431.461 159.599 431.753L159.877 432.02C160.187 432.285 160.519 432.523 160.868 432.733C162.646 433.638 164.612 434.11 166.607 434.11C168.602 434.11 170.569 433.638 172.346 432.733C172.698 432.526 173.029 432.288 173.337 432.02L173.615 431.753C173.951 431.46 174.223 431.102 174.414 430.699C174.606 430.297 174.713 429.86 174.729 429.415L177.991 429.46Z" fill="#263238"/>
<path d="M177.991 429.46C177.991 431.152 176.877 432.867 174.651 434.158C172.133 435.432 169.351 436.095 166.529 436.095C163.708 436.095 160.925 435.432 158.408 434.158C156.181 432.867 155.068 431.152 155.068 429.46C155.068 427.768 156.181 426.064 158.408 424.773V429.493C158.423 429.938 158.53 430.376 158.721 430.778C158.913 431.18 159.185 431.539 159.521 431.831L159.799 432.098C160.109 432.363 160.441 432.601 160.79 432.811C162.568 433.716 164.534 434.188 166.529 434.188C168.524 434.188 170.491 433.716 172.268 432.811C172.62 432.604 172.951 432.366 173.259 432.098L173.538 431.831C173.873 431.538 174.145 431.179 174.336 430.777C174.528 430.375 174.635 429.938 174.651 429.493V424.806C176.877 426.064 177.991 427.768 177.991 429.46Z" fill="#455A64"/>
<path d="M70.89 368.383L76.6124 371.723L65.1564 391.529L59.4229 388.189C57.9533 387.343 57.0515 385.528 57.0515 382.946C57.2045 380.133 58.0181 377.397 59.4262 374.957C60.8344 372.518 62.7975 370.445 65.1564 368.907C67.3942 367.649 69.4316 367.526 70.89 368.383Z" fill="#455A64"/>
<path d="M62.7739 386.274C62.9269 383.462 63.7405 380.725 65.1487 378.286C66.5568 375.847 68.5199 373.774 70.8789 372.235C75.3321 369.653 78.9838 371.746 78.9838 376.911C78.8308 379.724 78.0172 382.46 76.609 384.899C75.2009 387.338 73.2378 389.411 70.8789 390.95C66.4033 393.544 62.7739 391.451 62.7739 386.274Z" fill="#263238"/>
<g opacity="0.3">
<path d="M65.1565 384.916C65.2636 382.928 65.8375 380.993 66.8317 379.267C67.8259 377.542 69.2124 376.075 70.8789 374.985C74.0519 373.159 76.6125 374.64 76.6125 378.325C76.5068 380.315 75.9323 382.252 74.9359 383.978C73.9395 385.704 72.5494 387.169 70.8789 388.256C67.7171 390.048 65.1565 388.568 65.1565 384.916Z" fill="black"/>
</g>
<g opacity="0.3">
<path d="M72.5156 375.954C72.4099 377.944 71.8354 379.881 70.839 381.606C69.8426 383.332 68.4525 384.798 66.782 385.884C66.3229 386.145 65.8329 386.347 65.3236 386.486C65.1858 385.974 65.1147 385.446 65.1121 384.916C65.2192 382.928 65.7931 380.992 66.7873 379.267C67.7814 377.542 69.1679 376.075 70.8345 374.985C71.2984 374.726 71.7918 374.525 72.3041 374.384C72.4419 374.896 72.513 375.424 72.5156 375.954Z" fill="black"/>
</g>
<path d="M66.8374 388.634L134.004 427.467C134.311 427.647 134.566 427.904 134.743 428.212C134.921 428.52 135.015 428.87 135.017 429.226V451.436H151.227V432.254V427.077C151.227 424.525 150.555 422.018 149.279 419.807C148.002 417.597 146.167 415.762 143.957 414.486L74.9312 374.596C74.2803 374.294 73.5608 374.171 72.8466 374.24C72.1325 374.308 71.4494 374.565 70.8676 374.985C69.2011 376.075 67.8146 377.542 66.8204 379.267C65.8262 380.992 65.2523 382.928 65.1452 384.916C65.0711 385.628 65.1878 386.346 65.4833 386.997C65.7787 387.649 66.2423 388.21 66.8263 388.623L66.8374 388.634Z" fill="#455A64"/>
<path d="M151.227 427.077C151.222 425.952 151.084 424.83 150.815 423.737C150.882 424.183 151.049 427.267 145.093 429.248C138.658 431.386 135.017 429.248 135.017 429.248V451.459H151.227V432.254V427.077Z" fill="white"/>
<g opacity="0.3">
<path d="M66.8373 388.634L134.004 427.467C134.311 427.647 134.566 427.904 134.743 428.212C134.921 428.521 135.015 428.87 135.017 429.226V451.437H141.029V435.071V432.844C141.03 430.289 140.358 427.778 139.08 425.565C137.802 423.353 135.962 421.516 133.747 420.241L66.0357 381.097C65.5065 382.304 65.2081 383.599 65.1562 384.916C65.0821 385.628 65.1988 386.346 65.4943 386.998C65.7897 387.649 66.2532 388.21 66.8373 388.623V388.634Z" fill="black"/>
</g>
<path d="M154.6 442.975V449.6C154.6 451.303 153.487 453.018 151.26 454.309C148.742 455.588 145.957 456.255 143.133 456.255C140.308 456.255 137.524 455.588 135.006 454.309C132.779 453.018 131.666 451.303 131.666 449.611V442.931H135.084C135.097 443.376 135.203 443.814 135.395 444.217C135.586 444.619 135.86 444.978 136.197 445.269C136.28 445.363 136.37 445.453 136.464 445.536C136.771 445.804 137.103 446.043 137.455 446.249C139.235 447.154 141.203 447.626 143.2 447.626C145.196 447.626 147.165 447.154 148.944 446.249C149.295 446.04 149.626 445.802 149.935 445.536C150.035 445.447 150.113 445.358 150.202 445.269C150.534 444.973 150.804 444.614 150.995 444.212C151.186 443.811 151.295 443.375 151.316 442.931L154.6 442.975Z" fill="#263238"/>
<path d="M154.6 442.975C154.6 444.667 153.487 446.382 151.26 447.673C148.74 448.947 145.956 449.611 143.133 449.611C140.309 449.611 137.525 448.947 135.006 447.673C132.779 446.382 131.666 444.667 131.666 442.975C131.666 441.283 132.779 439.58 135.006 438.288V443.009C135.019 443.454 135.125 443.892 135.317 444.295C135.508 444.697 135.782 445.055 136.119 445.347C136.202 445.441 136.292 445.53 136.386 445.614C136.693 445.882 137.025 446.12 137.377 446.326C139.157 447.232 141.125 447.704 143.122 447.704C145.118 447.704 147.087 447.232 148.866 446.326C149.217 446.118 149.548 445.879 149.857 445.614C149.958 445.525 150.035 445.436 150.125 445.347C150.456 445.051 150.726 444.691 150.917 444.29C151.108 443.888 151.217 443.453 151.238 443.009V438.322C153.476 439.58 154.6 441.283 154.6 442.975Z" fill="#455A64"/>
<path d="M256.713 113.379C256.713 78.8662 244.589 54.6071 225.006 43.2959C205.423 31.9846 178.358 33.6212 148.455 50.8887C88.6695 85.4014 40.2292 169.345 40.2292 238.382C40.2292 272.895 52.3532 297.154 71.9364 308.454C91.5196 319.754 118.584 318.129 148.488 300.872C208.251 266.359 256.713 182.416 256.713 113.379Z" fill="#FBC108" fill-opacity="0.864583"/>
<path opacity="0.95" d="M256.713 113.379C256.713 78.8662 244.589 54.6071 225.006 43.2959C205.423 31.9846 178.358 33.6212 148.455 50.8887C88.6695 85.4014 40.2292 169.345 40.2292 238.382C40.2292 272.895 52.3532 297.154 71.9364 308.454C91.5196 319.754 118.584 318.129 148.488 300.872C208.251 266.359 256.713 182.416 256.713 113.379Z" fill="white"/>
<g opacity="0.2">
<path d="M87.7343 284.785L61.115 300.148C64.3359 303.377 67.9666 306.17 71.9141 308.454C73.1165 309.155 74.3412 309.801 75.5992 310.391L87.7343 303.388C88.9831 302.573 90.0221 301.474 90.7668 300.182C91.5116 298.89 91.9411 297.44 92.0206 295.951V287.267C92.0206 284.528 90.1057 283.415 87.7343 284.785Z" fill="#FBC108" fill-opacity="0.864583"/>
<path d="M147.107 127.195C147.107 129.934 149.033 131.047 151.405 129.678L191.139 106.732C192.389 105.918 193.43 104.82 194.177 103.527C194.923 102.235 195.355 100.785 195.436 99.2954V90.6004C195.436 87.8728 193.51 86.7594 191.139 88.1288L151.405 111.074C150.155 111.889 149.114 112.987 148.367 114.279C147.621 115.571 147.189 117.021 147.107 118.511V127.195Z" fill="#FBC108" fill-opacity="0.864583"/>
<path d="M191.139 133.808L151.405 156.754C150.155 157.568 149.114 158.666 148.367 159.958C147.621 161.25 147.189 162.7 147.107 164.19V172.874C147.107 175.613 149.033 176.726 151.405 175.357L191.139 152.412C192.389 151.597 193.43 150.499 194.177 149.207C194.923 147.915 195.355 146.465 195.436 144.975V136.291C195.436 133.552 193.51 132.439 191.139 133.808Z" fill="#FBC108" fill-opacity="0.864583"/>
<path d="M118.629 74.9472V72.921C113.002 78.0679 107.644 83.5006 102.575 89.1976L114.332 82.3396C115.576 81.5292 116.613 80.4383 117.359 79.1544C118.106 77.8706 118.541 76.4296 118.629 74.9472Z" fill="#FBC108" fill-opacity="0.864583"/>
<path d="M217.024 233.016L178.002 255.549C176.754 256.363 175.716 257.459 174.971 258.749C174.226 260.04 173.796 261.487 173.716 262.975V271.67C173.716 274.409 175.631 275.511 178.002 274.141L190.249 267.061C200.147 256.513 209.106 245.121 217.024 233.016Z" fill="#FBC108" fill-opacity="0.864583"/>
<path d="M229.704 180.055C228.457 180.872 227.419 181.971 226.674 183.262C225.929 184.554 225.499 186.003 225.418 187.492V196.176C225.418 198.915 227.344 200.028 229.704 198.659L238.332 193.682C241.709 185.918 244.682 177.984 247.239 169.913L229.704 180.055Z" fill="#FBC108" fill-opacity="0.864583"/>
<path d="M118.629 257.687V249.003C118.629 246.264 116.703 245.151 114.331 246.52L74.5971 269.465C73.3448 270.279 72.302 271.376 71.5533 272.669C70.8047 273.961 70.3714 275.411 70.2886 276.902V285.586C70.2886 288.325 72.2146 289.438 74.586 288.069L114.32 265.123C115.572 264.31 116.615 263.213 117.364 261.92C118.113 260.628 118.546 259.178 118.629 257.687Z" fill="#FBC108" fill-opacity="0.864583"/>
<path d="M139.437 163.612L99.6913 186.557C98.4425 187.372 97.4035 188.471 96.6588 189.763C95.9141 191.055 95.4845 192.505 95.405 193.994V202.678C95.405 205.416 97.3199 206.53 99.6913 205.16L139.437 182.215C140.697 181.401 141.747 180.299 142.5 179.001C143.253 177.702 143.687 176.244 143.767 174.745V166.061C143.767 163.355 141.808 162.242 139.437 163.612Z" fill="#FBC108" fill-opacity="0.864583"/>
</g>
<path opacity="0.2" d="M325.75 277.826L111.993 314.655C96.7856 317.16 83.1364 314.933 71.9142 308.465C52.331 297.142 40.2292 272.894 40.2292 238.382C40.2292 169.356 88.7029 85.4012 148.488 50.8773C178.38 33.621 205.445 31.951 225.028 43.2957C236.228 49.764 244.979 60.463 250.423 74.8915L325.75 277.826Z" fill="#FBC108" fill-opacity="0.864583"/>
<path opacity="0.2" d="M325.75 277.826L111.993 314.655C96.7856 317.16 83.1364 314.933 71.9142 308.465C52.331 297.142 40.2292 272.894 40.2292 238.382C40.2292 169.356 88.7029 85.4012 148.488 50.8773C178.38 33.621 205.445 31.951 225.028 43.2957C236.228 49.764 244.979 60.463 250.423 74.8915L325.75 277.826Z" fill="white"/>
<path d="M469.835 271.826L458.98 246.097C453.792 232.837 455.741 214.924 455.741 214.924C461.986 214.813 467.842 216.928 471.895 224.265C475.947 231.601 483.941 257.664 485.767 263.331C487.392 268.205 488.292 273.292 488.439 278.427C488.795 284.974 487.125 297.02 486.691 303.533C486.49 306.55 486.524 309.444 486.535 312.439C486.546 315.434 485.733 318.674 485.31 321.824C485.061 323.314 484.423 324.712 483.462 325.877C482.861 326.623 481.903 326.868 481.336 327.569C480.768 328.271 480.779 329.306 479.911 329.952C479.042 330.597 477.684 330.564 476.871 331.277C476.089 332.121 475.257 332.917 474.377 333.659C473.521 334.085 472.783 334.716 472.229 335.496C471.75 336.264 471.438 337.845 470.336 337.934C469.234 338.023 468.688 336.899 468.443 335.897C468.119 333.908 468.439 331.868 469.356 330.074C470.292 328.204 470.781 326.144 471.939 324.396C472.894 322.666 473.453 320.746 473.576 318.774C473.721 317.449 473.309 315.868 471.828 316.904C470.08 318.117 468.399 320.31 466.039 320.344C464.402 320.344 464.09 319.13 464.814 317.917C466.016 315.919 467.069 313.835 467.965 311.682C468.878 309.456 469.557 307.229 470.536 305.058C471.067 303.924 471.673 302.826 472.351 301.774C474.188 298.823 473.464 295.394 473.142 292.144C472.674 287.635 470.826 277.581 469.835 271.826Z" fill="#FFA8A7"/>
<path d="M454.683 213.9C463.489 214.557 468.41 216.36 473.108 225.033C477.806 233.706 484.074 254.614 485.443 258.922C487.22 264.121 488.342 269.522 488.783 274.998C489.033 278.136 489.055 281.287 488.85 284.428C488.85 284.428 487.659 286.733 480.612 286.733C473.564 286.733 471.483 285.497 471.483 285.497L469.256 272.048L454.783 240.118L454.683 213.9Z" fill="#455A64"/>
<path d="M351.957 449.889C351.245 449.577 350.655 451.381 350.844 452.383C351.356 455.289 354.184 459.141 359.105 462.046C364.026 464.952 374.981 466.923 378.187 467.824C381.393 468.726 386.347 472.111 389.32 473.636C394.775 476.419 399.228 476.096 401.7 474.861C402.132 474.587 402.504 474.227 402.791 473.804C403.078 473.381 403.275 472.903 403.37 472.4C404.016 470.174 403.971 469.695 403.726 469.628L351.957 449.889Z" fill="#263238"/>
<path d="M405.14 463.093C404.861 465.862 404.175 468.574 403.103 471.142C402.465 471.76 401.704 472.236 400.869 472.539C400.035 472.842 399.145 472.966 398.26 472.901C394.118 472.901 390.467 471.443 386.659 469.216C384.213 467.678 381.568 466.479 378.799 465.653C375.459 464.774 368.011 463.171 364.716 462.158C361.635 461.211 358.782 459.643 356.332 457.549C354.495 455.845 351.879 452.55 351.746 450.635C352.302 446.471 353.46 444.267 356.199 443.666C358.938 443.064 362.556 443.855 367.399 445.024C368.846 445.38 370.65 445.87 371.44 446.037C374.402 446.638 377.14 447.295 379.356 447.852C381.197 448.466 383.152 448.66 385.078 448.419C385.957 448.332 386.777 447.938 387.394 447.306C388.173 446.449 388.63 444.979 389.543 445.18C389.543 445.18 404.828 453.162 406.098 453.719C407.512 454.287 405.83 456.124 405.14 463.093Z" fill="white"/>
<path d="M351.746 450.59C351.991 447.696 353.004 443.91 356.41 443.454C361.509 442.764 366.497 444.846 371.396 445.992L365.45 444.623C358.592 443.187 352.781 441.584 351.746 450.59Z" fill="white"/>
<path d="M370.193 445.436C369.573 445.654 369.008 446.004 368.534 446.46C368.023 446.955 367.571 447.508 367.187 448.108C366.709 448.865 367.666 449.355 368.378 448.531C368.928 447.834 369.56 447.206 370.26 446.66C370.757 446.288 371.365 446.096 371.986 446.115L372.832 446.293C372.821 445.614 370.95 445.28 370.193 445.436Z" fill="#FAFAFA"/>
<path d="M377.764 446.939C377.501 446.823 377.216 446.763 376.929 446.763C376.641 446.763 376.357 446.823 376.094 446.939C375.416 447.217 374.83 447.68 374.402 448.275C373.858 448.975 373.374 449.72 372.954 450.501C372.721 451.013 373.979 451.403 374.301 450.869C374.719 450.174 375.173 449.502 375.66 448.854C375.916 448.531 377.018 447.34 377.886 447.484L378.287 447.584C378.354 447.406 378.142 447.195 377.987 447.095L377.764 446.939Z" fill="#FAFAFA"/>
<path d="M382.095 448.197C381.707 448.151 381.314 448.237 380.981 448.442C380.553 448.751 380.177 449.127 379.868 449.555C379.356 450.294 378.954 451.104 378.677 451.96C378.443 452.639 379.79 452.862 379.935 452.416C380.284 451.207 380.949 450.112 381.861 449.243C382.268 448.869 382.761 448.601 383.297 448.464C383.297 448.33 383.13 448.253 382.997 448.23C382.863 448.208 382.295 448.197 382.095 448.197Z" fill="#FAFAFA"/>
<path d="M412.076 436.663C412.076 436.663 407.278 451.236 405.808 454.554C405.341 455.667 403.125 455.389 401.9 455.511C400.428 455.573 398.976 455.877 397.603 456.413C394.018 458.239 391.758 458.205 391.658 452.939C391.658 451.826 391.146 451.247 389.832 451.069C388.829 451.089 387.831 450.915 386.893 450.557C386.782 450.423 386.893 450.223 387.082 450.112C387.676 449.734 388.182 449.234 388.566 448.644C388.95 448.055 389.204 447.389 389.309 446.694C390.801 440.459 391.535 435.082 393.217 427.422L412.076 436.663Z" fill="#FFA8A7"/>
<path d="M423.677 292.511C423.677 292.511 416.34 301.295 411.909 317.739C407.893 333.007 404.836 348.513 402.758 364.164C401.7 371.167 400.921 376.154 399.017 388.902C397.436 399.512 390.467 439.001 390.467 439.001C390.467 439.001 395.577 443.454 399.874 445.057C403.882 446.571 407.59 447.173 409.059 446.571C409.059 446.571 413.991 433.902 420.092 417.313C423.037 409.714 425.385 401.897 427.117 393.934C427.919 389.826 427.729 382.522 427.651 378.837L460.45 328.182C463.098 325.044 465.171 321.464 466.573 317.605C470.881 306.784 465.382 291.175 465.382 291.175L423.677 292.511Z" fill="#263238"/>
<path d="M411.909 317.739C406.677 337.288 403.838 358.241 400.91 378.281C397.904 397.942 393.951 419.34 390.467 438.99C393.54 419.239 397.492 397.908 400.353 378.203C403.448 358.163 406.254 337.199 411.909 317.739Z" fill="white"/>
<path d="M455.952 306.739H415.672C414.17 310.316 412.913 313.991 411.909 317.739C408.169 331.799 405.299 346.077 403.314 360.49C404.294 367.081 405.396 373.85 406.432 378.503C409.137 390.75 410.818 399.478 412.967 404.544C415.116 409.609 420.248 416.79 420.27 416.79C423.132 409.33 425.421 401.664 427.117 393.856C427.919 389.748 427.729 382.444 427.651 378.759L451.476 342.02L453.325 330.609C459.414 320.678 458.735 313.241 455.952 306.739Z" fill="black"/>
<path d="M470.035 459.619C467.965 456.279 466.84 449.945 462.298 436.997L444.585 451.47L455.084 468.169C455.416 469.024 455.669 469.907 455.841 470.808C458.101 474.092 470.035 459.619 470.035 459.619Z" fill="#FFA8A7"/>
<path d="M476.281 466.678C476.281 466.488 476.359 464.93 476.281 464.74C475.836 463.059 474.8 462.592 473.464 461.657C472.126 460.751 470.894 459.698 469.79 458.517C469.345 457.894 469.256 457.571 468.566 457.292C467.666 457.011 466.716 456.929 465.782 457.052C464.848 457.175 463.951 457.5 463.155 458.005C459.325 460.009 458.156 462.458 458.379 465.063C458.546 467.056 458.713 469.717 456.943 470.908C456.208 471.409 455.05 468.214 455.05 468.214C453.937 470.029 455.495 472.556 456.286 476.252C456.746 478.294 456.784 480.408 456.397 482.464C456.008 485.704 455.562 485.693 453.837 485.916C452.356 486.116 448.148 485.838 445.587 487.619C444.612 488.188 443.839 489.048 443.376 490.078C442.913 491.108 442.783 492.257 443.004 493.364C443.461 494.611 447.301 500.656 461.307 498.396C465.371 497.739 473.91 491.349 473.787 490.759C473.715 490.148 473.715 489.532 473.787 488.922C473.787 487.486 473.887 486.049 473.954 484.624C473.901 483.254 473.983 481.882 474.199 480.527C474.458 479.429 474.629 478.312 474.711 477.187C474.978 474.304 475.257 471.432 475.524 468.559C475.669 467.68 476.392 467.546 476.281 466.678Z" fill="white"/>
<path d="M478.051 466.11C479.431 467.446 478.585 471.331 476.737 475.985C475.913 478.045 474.388 481.607 474.833 485.381C475.279 489.155 475.357 490.948 474.388 492.718C472.863 495.49 464.713 499.042 459.915 500.155C462.817 496.084 464.508 491.275 464.791 486.283C465.281 477.944 465.905 472.567 469.734 468.86C474.555 464.206 478.051 466.11 478.051 466.11Z" fill="black"/>
<path d="M443.037 493.364C443.037 493.364 445.843 498.63 456.687 498.452C460.962 498.385 463.244 496.303 463.367 489.824C463.5 482.03 464.124 474.104 466.651 470.229C469.178 466.355 473.208 464.462 476.337 464.741C477.067 464.962 477.688 465.451 478.073 466.11C478.073 466.11 474.945 465.086 470.08 469.116C466.484 472.1 465.515 478.323 465.571 486.049C465.571 489.389 465.794 493.152 464.825 495.68C464.376 496.79 463.674 497.781 462.775 498.573C461.877 499.365 460.806 499.938 459.648 500.244C453.747 501.892 445.687 499.131 443.65 496.682C443.302 496.212 443.066 495.669 442.96 495.094C442.854 494.519 442.88 493.927 443.037 493.364Z" fill="#263238"/>
<path d="M456.063 484.502C455.624 484.812 455.311 485.271 455.184 485.793C455.135 486.46 455.268 487.128 455.567 487.726C455.867 488.324 456.323 488.829 456.887 489.189C457.544 489.601 458.112 489.456 457.076 488.076C456.413 487.002 456.062 485.764 456.063 484.502Z" fill="#FAFAFA"/>
<path d="M456.609 480.449C456.609 480.449 456.264 480.672 456.186 481.763C456.365 483.142 457.081 484.394 458.179 485.248C459.292 485.805 458.702 484.491 458.179 483.845C457.408 482.845 456.871 481.685 456.609 480.449Z" fill="#FAFAFA"/>
<path d="M456.263 475.985C456.263 475.985 455.885 476.085 456.263 477.577C456.79 478.52 457.623 479.254 458.624 479.659C459.358 479.748 459.737 479.381 458.813 478.724C458.123 478.212 456.397 476.709 456.263 475.985Z" fill="#FAFAFA"/>
<path d="M449.116 292.511C451.031 294.47 455.796 301.05 456.575 311.17C456.87 317.821 454.782 324.358 450.686 329.607C449.15 352.051 447.691 394.424 447.691 394.424C452.901 401.783 454.226 406.503 457.655 417.447C459.737 424.127 466.951 450.468 466.951 450.468C456.397 452.06 449.984 461.334 449.984 461.334C449.984 461.334 435.356 437.765 425.625 421.366C418.5 409.364 416.051 404.199 413.668 397.396C411.442 391.139 409.883 383.569 407.745 368.962C405.608 354.356 403.515 335.129 402.468 320.745C401.422 306.361 402.023 291.342 402.023 291.342L449.116 292.511Z" fill="#263238"/>
<path d="M449.985 461.334C444.941 453.351 434.977 437.264 430.09 429.192C423.688 418.36 416.552 407.739 412.833 395.593C409.863 383.332 407.632 370.903 406.153 358.375C404.584 345.872 403.337 333.325 402.502 320.745C403.014 327.024 403.619 333.295 404.316 339.56C406.309 358.33 408.77 377.145 413.401 395.448C417.03 407.527 424.111 418.193 430.435 429.003L450.018 461.289L449.985 461.334Z" fill="white"/>
<path d="M468.143 310.101C466.427 309.547 464.923 308.478 463.834 307.04C463.318 306.039 462.943 304.971 462.721 303.867C462.274 302.021 461.667 300.218 460.906 298.478L459.793 298.968C460.517 300.653 461.098 302.396 461.53 304.178C461.778 305.402 462.202 306.583 462.788 307.685C464.089 309.439 465.932 310.715 468.032 311.315C468.076 310.914 468.121 310.569 468.143 310.101Z" fill="black"/>
<path d="M439.319 322.96C439.581 322.961 439.842 322.935 440.098 322.882C441.857 322.492 443.227 321.312 445.954 317.828C448.025 315.167 447.814 313.263 447.469 310.101C447.335 308.932 446.11 302.731 446.044 301.094L444.875 301.74C444.952 303.421 446.133 309.055 446.255 310.235C446.611 313.374 446.767 314.811 444.997 317.071C442.47 320.299 441.267 321.379 439.831 321.702C438.395 322.025 432.283 320.989 430.635 319.854C429.689 319.197 428.108 311.092 427.173 303.945L425.97 304.112C426.438 307.719 428.108 319.587 429.945 320.811C431.582 321.98 436.87 323.027 439.319 322.96Z" fill="black"/>
<path d="M427.551 207.353L429.767 223.586L451.821 222.461L449.439 204.882L427.551 207.353Z" fill="#FFA8A7"/>
<path d="M418.756 176.971C417.064 179.12 411.876 184.976 410.963 186.512L415.906 189.507L418.756 176.971Z" fill="#F28F8F"/>
<path d="M418.756 176.971C416.373 180.321 413.769 183.509 410.963 186.512C413.174 183.035 415.79 179.832 418.756 176.971Z" fill="white"/>
<path d="M431.002 160.661C424.189 159.926 419.769 164.758 417.787 179.265C417.709 179.832 416.874 180.723 416.24 182.894C413.501 192.201 415.026 201.063 416.607 203.424C420.56 206.596 424.946 207.788 431.303 207.242C436.146 206.83 448.504 205.361 454.783 198.814C462.153 191.121 465.916 179.51 460.639 173.498C453.269 165.025 434.788 161.062 431.002 160.661Z" fill="#FFA8A7"/>
<path d="M431.002 160.661C420.76 159.804 419.346 172.318 417.876 179.832C415.082 185.121 414.659 191.478 415.093 197.367C415.196 199.466 415.711 201.523 416.607 203.424C415.628 201.55 415.019 199.505 414.815 197.4C414.191 191.433 414.581 184.987 417.387 179.587C418.734 172.039 420.726 159.314 431.002 160.661Z" fill="white"/>
<path d="M416.63 203.424C417.498 204.726 423.744 207.933 427.663 208.177L427.295 205.127C423.68 205.034 420.094 204.461 416.63 203.424Z" fill="#F28F8F"/>
<path d="M429.678 186.078C429.744 186.311 429.876 186.52 430.056 186.682C430.237 186.843 430.46 186.949 430.699 186.989C430.938 187.029 431.183 187 431.407 186.905C431.63 186.811 431.822 186.656 431.96 186.457C432.677 185.406 433.51 184.439 434.443 183.573C435.627 182.598 437.129 182.091 438.662 182.148C444.385 182.582 442.982 190.119 440.176 192.747C435.578 197.033 433.14 193.326 433.14 193.326C433.14 193.326 429.8 200.618 434.643 204.882C434.643 204.882 442.948 208.467 449.472 206.441C454.349 201.186 457.611 197.868 460.895 193.348C468.688 182.638 468.688 172.039 463.689 169.011C463.968 165.215 461.919 159.492 454.104 156.197C446.667 153.046 441.69 153.358 436.291 153.658C430.891 153.959 424.3 156.419 419.302 152.245C418.69 153.752 418.446 155.384 418.592 157.005C418.737 158.625 419.266 160.188 420.137 161.563C419.329 161.175 418.4 161.123 417.555 161.42C416.709 161.716 416.016 162.336 415.628 163.144C415.239 163.951 415.188 164.88 415.484 165.726C415.781 166.571 416.401 167.265 417.209 167.653C416.674 167.958 416.262 168.438 416.041 169.012C415.82 169.586 415.804 170.219 415.995 170.803C416.216 171.377 416.597 171.876 417.092 172.241C417.587 172.606 418.176 172.822 418.789 172.863C419.907 172.929 421.029 172.857 422.129 172.652C423.699 177.038 428.653 178.574 431.604 178.396C431.526 178.396 431.136 178.997 431.08 179.075C430.913 179.32 430.758 179.576 430.613 179.832C430.331 180.356 430.096 180.904 429.911 181.469C429.548 182.608 429.408 183.806 429.5 184.998C429.496 185.366 429.556 185.731 429.678 186.078Z" fill="#455A64"/>
<path d="M419.324 152.245C418.742 153.753 418.522 155.377 418.682 156.986C418.843 158.595 419.379 160.144 420.248 161.507L420.437 161.797L420.114 161.652C419.336 161.308 418.455 161.281 417.657 161.576C416.859 161.87 416.207 162.464 415.84 163.231C415.472 163.998 415.417 164.878 415.688 165.685C415.958 166.492 416.531 167.161 417.286 167.553L417.487 167.653L417.286 167.753C414.492 169.534 416.541 173.086 419.513 172.852C420.408 172.857 421.301 172.79 422.185 172.652C420.867 172.957 419.504 173.014 418.166 172.819C415.694 172.273 414.826 168.855 417.175 167.553V167.753C416.341 167.354 415.699 166.641 415.391 165.769C415.084 164.897 415.134 163.939 415.533 163.105C415.932 162.271 416.645 161.629 417.517 161.321C418.389 161.013 419.347 161.064 420.181 161.463L420.059 161.619C419.185 160.233 418.661 158.656 418.531 157.023C418.401 155.391 418.669 153.751 419.313 152.245H419.324Z" fill="white"/>
<path d="M460.806 216.36C466.528 219.567 470.881 230.254 470.458 239.172C470.191 244.828 468.232 259.401 466.517 272.293C465.983 276.357 467.63 283.215 468.343 291.453C468.9 297.565 468.978 304.067 468.978 304.067C468.978 304.067 461.307 313.553 440.265 314.788C413.39 316.38 401.488 309.879 401.488 309.879C401.488 309.879 401.333 287.991 401.978 270.645C402.936 244.939 402.991 237.424 407.011 228.662C408.335 226.08 409.727 220.324 414.102 219.177C417.576 218.275 425.569 216.36 428.742 215.837C433.93 217.173 447.402 217.284 450.741 214.445L450.686 213.699C456.464 213.711 457.277 214.39 460.806 216.36Z" fill="#FBC108" fill-opacity="0.864583"/>
<path d="M316.843 282.135C317.723 282.335 318.903 281.879 320.183 280.754C322.781 278.276 324.523 275.036 325.159 271.503C325.393 269.822 325.159 268.586 324.48 267.962L319.214 262.919C318.483 262.329 317.592 261.971 316.655 261.892C315.719 261.813 314.78 262.015 313.96 262.474C309.506 264.767 305.966 271.38 306.478 276.368C306.712 278.606 316.331 282.012 316.843 282.135Z" fill="#455A64"/>
<path d="M324.881 270.991C325.038 270.281 324.96 269.54 324.658 268.879C324.355 268.218 323.845 267.674 323.206 267.329C322.566 266.984 321.832 266.857 321.113 266.967C320.395 267.078 319.732 267.419 319.226 267.94C317.636 269.045 316.328 270.509 315.41 272.213C314.491 273.917 313.987 275.813 313.937 277.749C313.776 278.46 313.853 279.205 314.155 279.87C314.458 280.534 314.969 281.081 315.612 281.427C316.254 281.773 316.993 281.899 317.714 281.785C318.435 281.672 319.099 281.325 319.604 280.799C321.196 279.698 322.505 278.234 323.422 276.53C324.34 274.825 324.84 272.926 324.881 270.991Z" fill="#263238"/>
<path d="M352.492 297.443C352.874 297.594 353.29 297.643 353.697 297.587C354.105 297.53 354.491 297.369 354.818 297.12C355.739 296.478 356.496 295.629 357.027 294.641C357.559 293.652 357.851 292.553 357.88 291.431C357.908 291.021 357.829 290.611 357.652 290.24C357.474 289.869 357.204 289.551 356.867 289.316L323.334 270.189C322.837 269.93 322.282 269.801 321.722 269.812C321.162 269.824 320.613 269.977 320.127 270.256C318.89 270.931 317.875 271.951 317.207 273.193C316.539 274.434 316.246 275.843 316.364 277.247C316.401 277.806 316.577 278.346 316.876 278.819C317.176 279.292 317.589 279.682 318.079 279.953L352.492 297.443Z" fill="#455A64"/>
<path d="M357.88 291.431C357.908 291.021 357.829 290.611 357.652 290.24C357.474 289.869 357.204 289.551 356.867 289.316C356.496 289.139 356.083 289.068 355.675 289.111C355.266 289.155 354.877 289.31 354.551 289.561C353.598 290.201 352.815 291.063 352.27 292.074C351.725 293.085 351.434 294.213 351.423 295.361C351.395 295.777 351.484 296.194 351.681 296.562C351.878 296.93 352.174 297.235 352.536 297.443C352.919 297.594 353.334 297.643 353.742 297.587C354.149 297.53 354.536 297.369 354.863 297.12C355.775 296.473 356.523 295.622 357.047 294.634C357.571 293.646 357.856 292.549 357.88 291.431Z" fill="#263238"/>
<path d="M394.541 286.466C397.569 285.453 399.807 281.946 404.149 272.906C409.582 261.661 412.51 259.123 416.496 247.611C419.836 239.183 415.382 223.641 413.356 220.402C406.576 222.818 401.845 225.055 397.269 234.563C393.161 243.113 384.933 260.37 381.181 267.963C381.181 267.963 359.349 272.672 353.482 273.061C351.206 273.263 348.919 272.835 346.869 271.826C345.644 271.197 344.283 270.876 342.906 270.891C342.365 270.871 341.826 270.95 341.314 271.124C340.356 271.588 339.506 272.248 338.82 273.061C337.357 274.268 335.822 275.384 334.222 276.401C332.452 277.726 330.37 278.628 328.577 279.975C327.041 281.088 325.349 282.057 324.38 283.772C324.2 284.048 324.079 284.359 324.024 284.684C323.995 284.968 324.027 285.254 324.119 285.523C324.212 285.792 324.361 286.038 324.558 286.243C324.957 286.656 325.456 286.959 326.006 287.123C326.784 287.257 327.536 287.516 328.232 287.891C328.956 288.425 329.012 289.483 329.668 290.117C330.693 291.086 332.374 290.941 333.543 291.743C334.445 292.366 334.946 293.502 335.914 293.97C336.442 294.203 337.008 294.339 337.584 294.37C338.608 294.471 339.621 294.782 340.646 294.782C341.87 294.782 342.405 294.203 343.418 293.669C346.914 291.721 348.806 289.383 354.985 288.971C359.116 288.704 391.513 287.479 394.541 286.466Z" fill="#FFA8A7"/>
<path d="M414.013 219.177C406.632 220.936 402.268 223.63 397.414 232.537C392.96 240.786 380.714 267.15 380.714 267.15L368.467 270.59C367.491 272.018 366.819 273.632 366.494 275.331C366.168 277.029 366.196 278.777 366.575 280.465C367.744 286.187 370.282 288.759 370.282 288.759C370.282 288.759 376.528 288.581 387.171 288.214C397.814 287.846 398.583 285.386 400.921 280.754C403.258 276.123 417.62 248.179 417.62 248.179C417.62 248.179 423.432 227.516 414.013 219.177Z" fill="#455A64"/>
<path d="M428.776 215.937C423.811 216.85 418.912 218.164 414.036 219.389C410.36 220.114 406.92 221.732 404.016 224.098C399.295 228.34 396.79 234.34 393.996 239.907C389.543 248.969 385.368 258.143 381.082 267.272V267.384H380.959L368.713 270.79C362.767 271.692 356.466 273.685 350.432 273.128C348.35 272.939 346.602 271.592 344.62 271.202C343.637 270.996 342.621 270.996 341.637 271.202C340.707 271.573 339.884 272.17 339.243 272.939C336.159 275.7 332.474 277.582 329.034 279.775C327.42 280.988 325.505 282.001 324.469 283.783C325.483 281.957 327.386 280.933 328.923 279.697C332.318 277.47 335.992 275.477 338.943 272.739C339.613 271.927 340.479 271.298 341.459 270.913C342.486 270.696 343.548 270.696 344.576 270.913C346.613 271.291 348.294 272.616 350.376 272.805C356.41 273.306 362.623 271.314 368.501 270.367L380.681 266.905L380.514 267.05C384.707 257.868 389.038 248.754 393.506 239.707C396.367 234.14 398.928 228.095 403.715 223.842C406.69 221.369 410.28 219.749 414.102 219.155C418.366 217.964 423.966 216.761 428.731 215.926L428.776 215.937Z" fill="white"/>
<path opacity="0.3" d="M409.304 378.481C404.228 397.464 400.507 416.785 398.171 436.295C397.414 442.608 396.456 449.6 391.569 453.652C387.817 456.758 382.662 457.337 377.786 457.693C368.679 458.339 358.804 458.395 351.167 453.63C352.146 456.335 354.807 459.553 359.093 462.069C364.059 464.974 374.969 466.945 378.187 467.847C381.404 468.749 386.336 472.122 389.32 473.658C394.775 476.441 399.228 476.119 401.711 474.883C402.142 474.606 402.511 474.244 402.796 473.819C403.081 473.394 403.277 472.915 403.37 472.411C404.027 470.185 403.971 469.706 403.726 469.65C404.43 467.516 404.915 465.315 405.173 463.082C405.83 456.402 407.4 454.454 406.22 453.741C406.855 452.138 407.812 449.444 408.769 446.672C408.875 446.648 408.979 446.619 409.081 446.582C409.081 446.582 414.013 433.913 420.125 417.336C420.537 416.222 420.927 415.109 421.305 414.063C417.164 406.971 415.049 402.785 413.69 397.419C412.332 392.052 410.862 386.931 409.304 378.481ZM488.739 274.943C488.304 269.466 487.201 264.064 485.455 258.855C484.074 254.547 477.806 233.583 473.108 224.966C468.41 216.349 463.489 214.534 454.683 213.833C453.355 213.69 452.02 213.634 450.686 213.666C450.686 213.666 450.686 214.089 450.686 214.301L449.572 206.207C454.36 201.052 457.599 197.746 460.839 193.281C468.632 182.56 468.632 171.972 463.634 168.944C463.923 165.137 461.863 159.425 454.059 156.13C451.564 155.047 448.947 154.27 446.266 153.814C443.642 154.121 441.054 154.684 438.539 155.495C435.077 156.609 431.637 158.312 429.433 161.207C427.518 163.745 426.727 166.929 425.981 170.013C423.588 179.91 421.194 189.997 421.984 200.139C422.022 201.871 422.448 203.571 423.231 205.116C423.727 205.894 424.375 206.563 425.137 207.084C425.898 207.604 426.757 207.965 427.662 208.144C427.662 208.144 432.461 208.456 434.866 208.5C435.2 210.549 435.678 213.621 435.979 215.67C436.163 216.349 436.131 217.069 435.89 217.73C435.634 218.104 435.305 218.423 434.922 218.666C434.539 218.909 434.111 219.071 433.663 219.144C424.957 221.537 414.804 221.749 408.68 228.384C406.525 230.989 404.796 233.921 403.559 237.068L394.007 258.098C391.936 262.674 389.721 267.428 385.768 270.523C378.632 276.09 368.445 274.598 359.65 276.769C353.271 278.35 347.593 281.901 341.28 283.66C339.833 284.072 338.386 284.462 336.916 284.773C335.447 285.085 333.821 284.94 332.285 285.174C331.699 285.234 331.147 285.475 330.706 285.864C330.265 286.254 329.956 286.772 329.824 287.345C329.784 287.958 329.887 288.571 330.125 289.138C330.425 289.886 330.931 290.535 331.583 291.008C332.266 291.14 332.922 291.389 333.521 291.743C334.433 292.366 334.923 293.502 335.892 293.969C336.419 294.205 336.985 294.337 337.562 294.359C338.573 294.556 339.596 294.694 340.623 294.771C341.848 294.771 342.383 294.192 343.396 293.658L344.186 293.19C347.214 291.353 349.274 289.327 354.974 288.948L356.154 288.882C358.737 288.748 364.07 288.514 369.982 288.236C370.227 288.536 370.371 288.681 370.371 288.681C370.371 288.681 376.617 288.514 387.26 288.147C397.903 287.779 398.672 285.308 401.01 280.688L401.722 279.285V279.396C405.14 272.716 411.219 260.77 413.223 256.863C413.223 256.863 412.488 289.149 412.566 303.165C412.711 329.295 416.808 355.213 420.882 381.019C421.895 387.365 424.59 393.399 426.85 399.445C429.343 406.125 431.915 412.805 434.643 419.373C439.942 432.397 446.356 444.939 453.814 456.858C455.604 459.36 457.099 462.062 458.267 464.908C459.67 468.927 459.592 473.291 459.459 477.533C459.545 481.029 459.037 484.515 457.956 487.842C455.729 493.787 447.992 494.355 443.182 490.848C442.92 491.669 442.877 492.544 443.06 493.386C442.899 493.951 442.869 494.545 442.971 495.124C443.073 495.702 443.305 496.25 443.65 496.726C445.687 499.22 453.747 501.948 459.648 500.289L459.937 500.2C464.736 499.086 472.885 495.546 474.41 492.774C475.39 491.004 475.312 489.211 474.856 485.437C474.399 481.663 475.969 478.1 476.76 476.03C478.619 471.376 479.454 467.502 478.073 466.155C477.687 465.496 477.067 465.007 476.336 464.785C475.891 463.115 474.856 462.648 473.531 461.712C472.184 460.81 470.947 459.752 469.846 458.562C469.631 458.17 469.344 457.822 469 457.537C468.287 455.823 467.597 453.552 466.695 450.579H466.985C466.985 450.579 459.737 424.127 457.655 417.447C454.226 406.503 452.901 401.783 447.691 394.424C447.691 394.424 448.637 366.981 449.806 344.57L460.449 328.126C462.517 325.716 464.213 323.01 465.482 320.099C465.447 320.16 465.418 320.223 465.393 320.288C465.602 320.35 465.82 320.377 466.038 320.366C468.399 320.366 470.08 318.139 471.828 316.926C471.976 316.791 472.155 316.696 472.35 316.65C472.545 316.603 472.748 316.606 472.941 316.659L473.063 316.581C474.945 315.679 475.056 319.921 475.023 320.822C474.868 322.966 474.349 325.067 473.486 327.035C472.173 330.308 470.514 333.603 470.67 337.121C470.669 337.366 470.703 337.61 470.77 337.845C471.549 337.455 471.883 336.186 472.251 335.518C472.811 334.744 473.547 334.114 474.399 333.681C475.281 332.946 476.114 332.154 476.893 331.31C477.717 330.597 478.986 330.709 479.944 329.985C480.901 329.261 480.756 328.337 481.358 327.603C481.959 326.868 482.883 326.656 483.495 325.899C484.453 324.733 485.087 323.336 485.332 321.847C485.755 318.696 486.568 315.646 486.557 312.473C486.546 309.3 486.557 306.539 486.724 303.566C487.024 298.857 487.982 291.253 488.36 284.929C488.543 284.788 488.698 284.615 488.817 284.417C489.018 281.261 488.992 278.095 488.739 274.943ZM476.915 299.514C476.27 301.907 474.422 303.733 473.008 305.759C470.18 309.812 469.011 314.855 466.061 318.83C466.239 318.407 466.428 317.972 466.606 317.516C468.013 313.504 468.53 309.234 468.12 305.002C468.428 304.727 468.714 304.429 468.977 304.112C468.977 304.112 468.9 297.61 468.343 291.509C467.597 283.259 465.983 276.412 466.517 272.349C467.152 267.517 467.831 262.44 468.432 257.686C470.143 261.062 471.631 264.547 472.885 268.118C475.891 276.858 476.637 286.165 477.116 295.328C477.268 296.729 477.201 298.145 476.915 299.525V299.514Z" fill="black"/>
<path d="M106.071 195.608L94.3808 202.355V230.477L78.2378 239.796L97.1641 168.543L84.6059 175.858L64.2991 251.786V262.696L94.3586 245.329V261.583L106.048 254.836V238.537L113.953 233.973V219.166L106.048 223.73L106.071 195.608ZM148.61 138.829C131.833 148.515 118.239 174.455 118.239 196.855C118.239 219.255 131.833 229.497 148.61 219.823C165.388 210.148 178.982 184.197 178.982 161.786C178.982 139.375 165.377 129.199 148.61 138.885V138.829ZM148.61 204.225C138.29 210.181 129.929 203.858 129.929 190.108C129.929 176.359 138.29 160.372 148.61 154.415C158.931 148.459 167.281 154.783 167.281 168.543C167.281 182.304 158.92 198.325 148.61 204.281V204.225ZM224.717 155.173V127.106L213.016 133.853V161.975L196.884 171.293L215.81 100.041L203.241 107.3L182.934 183.25V194.116L212.993 176.749V193.025L224.694 186.279V170.035L232.599 165.471V150.664L224.717 155.173Z" fill="#FBC108" fill-opacity="0.864583"/>
<path d="M104.457 150.04C104.486 150.018 104.521 150.007 104.557 150.007C104.593 150.007 104.628 150.018 104.657 150.04C104.724 150.04 104.746 150.151 104.746 150.263V151.298C104.747 151.412 104.716 151.524 104.657 151.621C104.615 151.717 104.545 151.798 104.457 151.855L99.6582 154.627C99.6293 154.649 99.5941 154.66 99.558 154.66C99.5219 154.66 99.4867 154.649 99.4578 154.627C99.4273 154.599 99.4035 154.564 99.3881 154.526C99.3727 154.487 99.3661 154.446 99.3688 154.404V144.997C99.3736 144.884 99.404 144.773 99.4578 144.674C99.5002 144.578 99.5699 144.497 99.6582 144.44L104.368 141.724C104.397 141.699 104.435 141.686 104.473 141.686C104.512 141.686 104.549 141.699 104.579 141.724C104.609 141.754 104.632 141.791 104.645 141.831C104.659 141.872 104.663 141.915 104.657 141.957V142.982C104.658 143.098 104.631 143.212 104.579 143.316C104.53 143.41 104.457 143.491 104.368 143.549L100.838 145.587V147.903L104.178 145.999C104.209 145.976 104.246 145.964 104.284 145.964C104.322 145.964 104.359 145.976 104.39 145.999C104.42 146.027 104.444 146.061 104.46 146.1C104.475 146.139 104.482 146.18 104.479 146.221V147.257C104.476 147.374 104.445 147.488 104.39 147.591C104.347 147.69 104.273 147.772 104.178 147.825L100.838 149.717V152.133L104.457 150.04Z" fill="black"/>
<path d="M109.255 138.918C110.168 138.395 110.858 138.284 111.337 138.573C111.816 138.862 112.038 139.497 112.038 140.499C112.041 141.191 111.917 141.878 111.671 142.525C111.414 143.17 111.036 143.76 110.558 144.262L112.06 146.99C112.071 147.034 112.071 147.079 112.06 147.123C112.06 147.216 112.037 147.308 111.994 147.39C111.953 147.465 111.896 147.53 111.827 147.58L110.892 148.125C110.747 148.203 110.647 148.225 110.569 148.125C110.511 148.078 110.462 148.022 110.424 147.958L108.999 145.387L107.54 146.221V149.617C107.543 149.731 107.512 149.843 107.451 149.94C107.406 150.037 107.337 150.121 107.251 150.185L106.36 150.686C106.332 150.709 106.297 150.722 106.26 150.722C106.223 150.722 106.188 150.709 106.16 150.686C106.126 150.658 106.1 150.622 106.085 150.581C106.069 150.54 106.064 150.495 106.071 150.452V141.056C106.069 140.942 106.1 140.83 106.16 140.733C106.202 140.634 106.272 140.549 106.36 140.488L109.255 138.918ZM107.618 144.485L109.199 143.572C109.59 143.356 109.932 143.06 110.201 142.703C110.462 142.317 110.591 141.856 110.569 141.39C110.569 140.844 110.446 140.555 110.201 140.51C109.843 140.495 109.49 140.601 109.199 140.811L107.618 141.724V144.485Z" fill="black"/>
<path d="M116.525 134.665C117.438 134.142 118.128 134.02 118.595 134.309C119.063 134.598 119.308 135.244 119.308 136.246C119.316 137.636 118.803 138.978 117.872 140.009L119.375 142.726C119.385 142.773 119.385 142.823 119.375 142.87C119.374 142.963 119.351 143.055 119.308 143.138C119.267 143.216 119.205 143.281 119.13 143.327L118.206 143.861C118.061 143.95 117.95 143.961 117.883 143.917C117.822 143.869 117.773 143.808 117.738 143.739L116.302 141.178L114.855 142.013V145.409C114.85 145.522 114.819 145.632 114.766 145.732C114.723 145.828 114.653 145.909 114.565 145.965L113.675 146.478C113.644 146.496 113.61 146.506 113.574 146.506C113.539 146.506 113.504 146.496 113.474 146.478C113.441 146.449 113.415 146.413 113.399 146.372C113.384 146.331 113.379 146.287 113.385 146.244V136.892C113.383 136.774 113.414 136.659 113.474 136.558C113.517 136.462 113.586 136.381 113.675 136.324L116.525 134.665ZM114.888 140.232L116.469 139.319C116.857 139.102 117.194 138.806 117.46 138.451C117.73 138.063 117.863 137.597 117.838 137.126C117.838 136.591 117.716 136.291 117.46 136.257C117.107 136.244 116.759 136.345 116.469 136.547L114.888 137.46V140.232Z" fill="black"/>
<path d="M120.466 136.224C120.489 135.661 120.567 135.101 120.699 134.554C120.831 134 121.033 133.465 121.301 132.962C121.562 132.449 121.892 131.973 122.28 131.548C122.684 131.107 123.153 130.731 123.672 130.435C124.093 130.17 124.569 130.002 125.064 129.945C125.414 129.908 125.765 130.008 126.043 130.223C126.332 130.454 126.542 130.769 126.644 131.125C126.791 131.579 126.874 132.051 126.889 132.528C126.889 132.706 126.889 132.906 126.889 133.129C126.889 133.351 126.889 133.585 126.889 133.819C126.889 134.053 126.889 134.287 126.889 134.509C126.889 134.732 126.889 134.943 126.889 135.133C126.866 135.696 126.788 136.255 126.656 136.803C126.519 137.355 126.317 137.89 126.054 138.395C125.793 138.911 125.459 139.387 125.064 139.809C124.664 140.254 124.194 140.63 123.672 140.922C123.253 141.193 122.776 141.365 122.28 141.423C121.932 141.458 121.583 141.363 121.301 141.156C121.012 140.924 120.802 140.609 120.699 140.254C120.558 139.799 120.479 139.327 120.466 138.851C120.466 138.673 120.466 138.473 120.466 138.25C120.466 138.027 120.466 137.794 120.466 137.56C120.466 137.326 120.466 137.092 120.466 136.87C120.466 136.647 120.466 136.413 120.466 136.224ZM125.409 133.44C125.433 133.196 125.401 132.949 125.314 132.719C125.227 132.489 125.088 132.283 124.908 132.116C124.596 131.908 124.184 131.952 123.672 132.249C123.153 132.554 122.729 132.997 122.447 133.53C122.128 134.118 121.956 134.775 121.946 135.444C121.946 135.823 121.946 136.235 121.946 136.691C121.946 137.148 121.946 137.549 121.946 137.905C121.919 138.15 121.951 138.397 122.038 138.628C122.125 138.858 122.265 139.064 122.447 139.23C122.646 139.346 122.876 139.397 123.105 139.377C123.334 139.358 123.552 139.267 123.728 139.118C124.25 138.814 124.678 138.371 124.963 137.838C125.277 137.252 125.449 136.599 125.464 135.934C125.464 135.556 125.464 135.144 125.464 134.687C125.464 134.231 125.431 133.797 125.409 133.44Z" fill="black"/>
<path d="M131.432 126.093C132.345 125.569 133.035 125.447 133.514 125.736C133.993 126.026 134.226 126.672 134.226 127.674C134.228 128.366 134.104 129.052 133.859 129.7C133.604 130.342 133.226 130.928 132.746 131.426L134.249 134.153C134.26 134.201 134.26 134.25 134.249 134.298C134.248 134.391 134.225 134.483 134.182 134.565C134.148 134.644 134.089 134.711 134.015 134.754L133.08 135.289C132.935 135.378 132.835 135.389 132.757 135.289C132.694 135.247 132.644 135.19 132.612 135.122L131.187 132.561L129.729 133.396V136.736C129.728 136.848 129.701 136.959 129.651 137.059C129.601 137.154 129.529 137.234 129.439 137.293L128.548 137.805C128.52 137.826 128.484 137.838 128.448 137.838C128.412 137.838 128.377 137.826 128.348 137.805C128.316 137.778 128.291 137.743 128.276 137.705C128.26 137.666 128.255 137.624 128.259 137.582V128.175C128.264 128.062 128.294 127.951 128.348 127.852C128.391 127.756 128.46 127.675 128.548 127.618L131.432 126.093ZM129.795 131.659L131.376 130.735C131.767 130.523 132.108 130.231 132.378 129.878C132.637 129.486 132.766 129.022 132.746 128.553C132.746 128.008 132.623 127.718 132.378 127.674C132.021 127.669 131.672 127.774 131.376 127.974L129.795 128.887V131.659Z" fill="black"/>
<path d="M144.669 128.642C144.535 128.72 144.446 128.731 144.38 128.642C144.327 128.607 144.279 128.566 144.235 128.52L141.184 124.233V130.234C141.18 130.347 141.149 130.458 141.095 130.557C141.049 130.654 140.976 130.735 140.884 130.791L140.004 131.303C139.974 131.326 139.937 131.338 139.899 131.338C139.86 131.338 139.823 131.326 139.793 131.303C139.762 131.275 139.738 131.24 139.723 131.202C139.708 131.163 139.701 131.122 139.704 131.08V121.673C139.709 121.56 139.739 121.449 139.793 121.35C139.839 121.253 139.912 121.172 140.004 121.116L140.772 120.671C140.895 120.604 140.984 120.593 141.051 120.671L141.196 120.793L144.246 125.08V119.079C144.251 118.962 144.281 118.848 144.335 118.745C144.381 118.648 144.455 118.566 144.547 118.511L145.426 117.999C145.457 117.976 145.494 117.964 145.532 117.964C145.57 117.964 145.607 117.976 145.638 117.999C145.668 118.027 145.692 118.062 145.707 118.1C145.723 118.139 145.729 118.18 145.727 118.222V127.629C145.724 127.742 145.693 127.853 145.638 127.952C145.588 128.05 145.516 128.134 145.426 128.197L144.669 128.642Z" fill="black"/>
<path d="M135.774 132.895C135.792 132.748 135.833 132.606 135.896 132.472C135.959 132.332 136.064 132.215 136.197 132.138L137.043 131.648C137.066 131.632 137.093 131.623 137.121 131.623C137.149 131.623 137.176 131.632 137.199 131.648C137.222 131.669 137.24 131.695 137.252 131.724C137.264 131.753 137.268 131.784 137.266 131.815C137.266 131.815 137.266 131.882 137.266 131.904L136.62 134.454C136.62 134.554 136.542 134.665 136.486 134.799C136.424 134.93 136.323 135.039 136.197 135.111L135.752 135.367C135.731 135.384 135.706 135.393 135.679 135.393C135.653 135.393 135.627 135.384 135.607 135.367C135.607 135.367 135.54 135.289 135.54 135.211L135.774 132.895Z" fill="black"/>
<path d="M147.163 120.816C147.186 120.253 147.265 119.693 147.397 119.146C147.529 118.588 147.731 118.049 147.998 117.542C148.259 117.032 148.588 116.56 148.978 116.14C149.379 115.696 149.849 115.32 150.37 115.026C150.788 114.756 151.265 114.588 151.761 114.537C152.11 114.498 152.46 114.593 152.741 114.804C153.027 115.042 153.236 115.36 153.342 115.717C153.491 116.17 153.573 116.642 153.587 117.119C153.587 117.298 153.587 117.498 153.587 117.721V119.079C153.587 119.302 153.587 119.513 153.587 119.702C153.564 120.265 153.486 120.825 153.353 121.372C153.216 121.925 153.015 122.459 152.752 122.964C152.486 123.478 152.153 123.953 151.761 124.378C151.359 124.82 150.889 125.196 150.37 125.492C149.95 125.763 149.474 125.934 148.978 125.993C148.629 126.029 148.28 125.934 147.998 125.725C147.707 125.492 147.497 125.172 147.397 124.812C147.255 124.362 147.176 123.893 147.163 123.421C147.163 123.232 147.163 123.042 147.163 122.82C147.163 122.597 147.163 122.363 147.163 122.129C147.163 121.896 147.163 121.662 147.163 121.428C147.163 121.194 147.108 121.005 147.163 120.816ZM152.106 118.032C152.129 117.786 152.096 117.538 152.009 117.307C151.922 117.076 151.784 116.867 151.605 116.696C151.408 116.6 151.187 116.562 150.968 116.585C150.75 116.609 150.542 116.694 150.37 116.83C149.852 117.142 149.429 117.588 149.145 118.121C148.827 118.711 148.651 119.367 148.633 120.036C148.633 120.415 148.633 120.827 148.633 121.272C148.633 121.717 148.633 122.129 148.633 122.497C148.61 122.74 148.644 122.986 148.733 123.214C148.822 123.442 148.963 123.647 149.145 123.81C149.339 123.911 149.56 123.952 149.777 123.928C149.995 123.905 150.201 123.817 150.37 123.677C150.87 123.37 151.281 122.936 151.561 122.419C151.875 121.832 152.046 121.18 152.062 120.515C152.062 120.137 152.062 119.725 152.062 119.268C152.062 118.812 152.117 118.389 152.106 118.032Z" fill="black"/>
<path d="M159.955 109.627C159.986 109.604 160.023 109.592 160.061 109.592C160.099 109.592 160.136 109.604 160.166 109.627C160.198 109.654 160.223 109.688 160.239 109.727C160.254 109.766 160.26 109.808 160.255 109.849V110.885C160.251 110.998 160.22 111.108 160.166 111.208C160.12 111.305 160.047 111.386 159.955 111.442L157.995 112.555V120.537C157.991 120.65 157.96 120.761 157.906 120.86C157.86 120.957 157.787 121.039 157.695 121.094L156.815 121.606C156.785 121.629 156.748 121.641 156.71 121.641C156.672 121.641 156.634 121.629 156.604 121.606C156.571 121.58 156.546 121.545 156.53 121.506C156.515 121.467 156.509 121.425 156.515 121.383V113.412L154.555 114.525C154.525 114.548 154.488 114.56 154.45 114.56C154.412 114.56 154.374 114.548 154.344 114.525C154.313 114.497 154.289 114.463 154.274 114.424C154.259 114.386 154.252 114.344 154.255 114.303V113.267C154.258 113.151 154.288 113.036 154.344 112.933C154.39 112.836 154.463 112.755 154.555 112.7L159.955 109.627Z" fill="black"/>
<path d="M168.516 104.684C168.545 104.662 168.581 104.65 168.617 104.65C168.653 104.65 168.688 104.662 168.717 104.684C168.75 104.71 168.775 104.744 168.791 104.783C168.806 104.822 168.811 104.865 168.806 104.906V105.942C168.808 106.056 168.777 106.168 168.717 106.265C168.671 106.362 168.603 106.446 168.516 106.51L165.032 108.514V111.341L168.294 109.46C168.324 109.435 168.361 109.422 168.4 109.422C168.438 109.422 168.476 109.435 168.505 109.46C168.537 109.49 168.561 109.526 168.576 109.567C168.592 109.607 168.598 109.651 168.594 109.694V110.718C168.591 110.835 168.561 110.949 168.505 111.052C168.459 111.149 168.386 111.23 168.294 111.286L165.032 113.167V116.507C165.027 116.62 164.997 116.731 164.943 116.83C164.9 116.926 164.831 117.007 164.742 117.064L163.852 117.576C163.823 117.598 163.788 117.609 163.752 117.609C163.715 117.609 163.68 117.598 163.651 117.576C163.618 117.55 163.592 117.516 163.576 117.477C163.56 117.438 163.556 117.395 163.562 117.353V107.946C163.56 107.828 163.591 107.713 163.651 107.612C163.694 107.516 163.763 107.435 163.852 107.378L168.516 104.684Z" fill="black"/>
<path d="M169.73 107.79C169.753 107.227 169.831 106.668 169.964 106.12C170.097 105.564 170.295 105.026 170.554 104.517C170.825 104.009 171.154 103.535 171.533 103.103C171.94 102.661 172.414 102.286 172.936 101.99C173.354 101.722 173.825 101.551 174.317 101.489C174.67 101.458 175.022 101.557 175.308 101.767C175.587 102.011 175.795 102.327 175.909 102.68C176.053 103.134 176.132 103.606 176.143 104.083C176.143 104.261 176.143 104.461 176.143 104.684V106.064C176.143 106.287 176.143 106.498 176.143 106.688C176.119 107.251 176.041 107.81 175.909 108.358C175.776 108.91 175.578 109.444 175.319 109.95C175.053 110.463 174.72 110.939 174.328 111.364C173.923 111.803 173.454 112.178 172.936 112.477C172.512 112.747 172.033 112.919 171.533 112.978C171.185 113.011 170.837 112.916 170.554 112.711C170.269 112.473 170.064 112.155 169.964 111.798C169.822 111.347 169.743 110.879 169.73 110.406C169.73 110.217 169.73 110.017 169.73 109.794V108.413C169.708 108.18 169.719 107.946 169.73 107.79ZM174.673 105.007C174.696 104.76 174.662 104.51 174.573 104.279C174.484 104.047 174.343 103.839 174.161 103.671C173.966 103.57 173.746 103.529 173.528 103.553C173.311 103.576 173.105 103.664 172.936 103.804C172.414 104.11 171.989 104.558 171.712 105.096C171.392 105.685 171.217 106.341 171.199 107.011C171.199 107.389 171.199 107.801 171.199 108.246C171.199 108.692 171.199 109.104 171.199 109.471C171.176 109.715 171.211 109.96 171.3 110.189C171.389 110.417 171.53 110.621 171.712 110.785C171.906 110.885 172.126 110.926 172.344 110.903C172.562 110.879 172.768 110.791 172.936 110.651C173.452 110.342 173.875 109.9 174.161 109.371C174.479 108.785 174.654 108.133 174.673 107.467C174.673 107.088 174.673 106.677 174.673 106.22C174.673 105.764 174.684 105.363 174.673 105.007Z" fill="black"/>
<path d="M183.49 96.0443C183.52 96.0199 183.558 96.0066 183.596 96.0066C183.635 96.0066 183.672 96.0199 183.702 96.0443C183.732 96.0747 183.755 96.1116 183.768 96.1522C183.782 96.1927 183.786 96.2358 183.78 96.2781V102.246C183.785 102.83 183.722 103.413 183.591 103.982C183.459 104.535 183.261 105.07 183.001 105.574C182.734 106.075 182.405 106.539 182.021 106.955C181.62 107.389 181.159 107.764 180.651 108.068C180.236 108.331 179.769 108.502 179.282 108.569C178.938 108.618 178.587 108.535 178.302 108.335C178.018 108.095 177.816 107.772 177.723 107.411C177.583 106.919 177.519 106.409 177.534 105.897V99.9298C177.534 99.8175 177.56 99.7066 177.612 99.607C177.661 99.5092 177.734 99.4251 177.824 99.362L178.714 98.8499C178.743 98.8282 178.778 98.8165 178.815 98.8165C178.851 98.8165 178.886 98.8282 178.915 98.8499C178.946 98.8797 178.97 98.9162 178.986 98.9567C179.001 98.9971 179.007 99.0405 179.004 99.0837V104.973C178.995 105.293 179.036 105.612 179.126 105.919C179.18 106.118 179.297 106.294 179.46 106.42C179.618 106.513 179.804 106.545 179.983 106.51C180.22 106.465 180.446 106.378 180.651 106.253C180.895 106.112 181.119 105.94 181.319 105.741C181.531 105.535 181.711 105.299 181.854 105.04C182.004 104.758 182.12 104.459 182.199 104.149C182.284 103.784 182.325 103.411 182.321 103.036V97.1354C182.326 97.0224 182.357 96.912 182.411 96.8125C182.453 96.7134 182.528 96.6312 182.622 96.5787L183.49 96.0443Z" fill="black"/>
<path d="M190.393 102.245C190.349 102.271 190.299 102.284 190.248 102.284C190.197 102.284 190.148 102.271 190.104 102.245L189.959 102.123L186.908 97.9258V103.915C186.905 104.032 186.875 104.147 186.819 104.249C186.776 104.349 186.702 104.431 186.608 104.483L185.728 104.995C185.697 105.016 185.66 105.028 185.622 105.028C185.585 105.028 185.548 105.016 185.517 104.995C185.486 104.967 185.462 104.933 185.447 104.894C185.431 104.856 185.425 104.814 185.428 104.773V95.3652C185.432 95.2522 185.463 95.1418 185.517 95.0424C185.566 94.9476 185.639 94.8671 185.728 94.8086L186.496 94.3632C186.619 94.2853 186.708 94.2853 186.775 94.3632C186.827 94.3989 186.876 94.4399 186.919 94.4857L189.97 98.772V92.6933C189.973 92.5765 190.004 92.4621 190.059 92.3593C190.105 92.2622 190.179 92.1809 190.271 92.1255L191.15 91.6134C191.181 91.5907 191.218 91.5786 191.256 91.5786C191.294 91.5786 191.331 91.5907 191.362 91.6134C191.392 91.6415 191.416 91.6761 191.431 91.7146C191.447 91.7531 191.453 91.7946 191.451 91.836V101.266C191.446 101.379 191.415 101.489 191.362 101.589C191.316 101.686 191.242 101.767 191.15 101.822L190.393 102.245Z" fill="black"/>
<path d="M196.093 88.7299C196.524 88.4689 197 88.2914 197.496 88.2067C197.844 88.1599 198.196 88.2432 198.487 88.4405C198.781 88.6731 198.996 88.9925 199.099 89.3534C199.259 89.8427 199.345 90.3529 199.355 90.8675C199.355 91.5689 199.355 92.2925 199.355 93.0273C199.333 93.6358 199.247 94.2403 199.099 94.8309C198.971 95.3932 198.769 95.9361 198.498 96.4452C198.234 96.9436 197.905 97.4043 197.518 97.8146C197.119 98.2513 196.658 98.6264 196.149 98.9279L193.399 100.509C193.371 100.532 193.335 100.545 193.299 100.545C193.262 100.545 193.227 100.532 193.198 100.509C193.165 100.481 193.139 100.444 193.123 100.404C193.108 100.363 193.103 100.318 193.109 100.275V90.8564C193.107 90.7424 193.138 90.6303 193.198 90.5335C193.241 90.4345 193.31 90.3496 193.399 90.2886L196.093 88.7299ZM197.886 91.7136C197.88 91.4486 197.835 91.1859 197.752 90.9343C197.692 90.7382 197.576 90.564 197.418 90.4333C197.338 90.3726 197.246 90.3286 197.149 90.3038C197.051 90.2789 196.95 90.2737 196.85 90.2886C196.562 90.3328 196.285 90.4351 196.037 90.5892L194.579 91.4353V97.9816L196.093 97.102C196.382 96.9387 196.645 96.7322 196.872 96.4897C197.092 96.2588 197.276 95.9961 197.418 95.7104C197.567 95.4292 197.68 95.1298 197.752 94.8198C197.83 94.5099 197.875 94.1927 197.886 93.8734C197.963 93.1386 197.963 92.4261 197.93 91.7136H197.886Z" fill="black"/>
</svg>
