<svg width="35" height="35" viewBox="0 0 35 35" fill="none" xmlns="http://www.w3.org/2000/svg">
<rect width="35" height="35" rx="17.25" fill="#FBC108" fill-opacity="0.0646"/>
<path d="M23.2658 25.06H19.9705C19.4649 25.06 19.0552 24.6565 19.0552 24.1587V20.9141C19.0552 20.5157 18.7275 20.193 18.3229 20.193H16.8583C16.4537 20.193 16.126 20.5157 16.126 20.9141V24.1587C16.126 24.6565 15.7163 25.06 15.2107 25.06H11.9154C11.4097 25.06 11 24.6565 11 24.1587V17.2776C11 16.4488 11.3859 15.6657 12.0468 15.1531L17.2505 11.1157C17.45 10.9614 17.7312 10.9614 17.9304 11.1157L23.1348 15.1531C23.7957 15.6657 24.1812 16.4484 24.1812 17.2769V24.1587C24.1812 24.6565 23.7715 25.06 23.2658 25.06Z" fill="#FBC108" fill-opacity="0.864583"/>
</svg>
