<svg width="26" height="30" viewBox="0 0 26 30" fill="none" xmlns="http://www.w3.org/2000/svg">
<path d="M25.2282 19.5034L22.6446 16.9618V10.699C22.6789 8.37341 21.8521 6.11415 20.3166 4.33842C18.7811 2.56269 16.6407 1.39042 14.2907 1.03805C12.9268 0.862337 11.5403 0.973196 10.2237 1.36323C8.90713 1.75327 7.69069 2.41351 6.65558 3.2999C5.62047 4.18629 4.79049 5.27846 4.22102 6.50352C3.65155 7.72858 3.3557 9.05836 3.35318 10.4041V16.9618L0.769517 19.5034C0.444988 19.8262 0.224913 20.2354 0.136805 20.6799C0.0486976 21.1244 0.0964657 21.5844 0.274138 22.0024C0.45181 22.4205 0.751503 22.778 1.13575 23.0304C1.52 23.2827 1.97176 23.4186 2.43455 23.4212H7.25739V23.8986C7.32444 25.3242 7.9664 26.6656 9.0426 27.629C10.1188 28.5923 11.5415 29.099 12.9989 29.038C14.4563 29.099 15.879 28.5923 16.9552 27.629C18.0314 26.6656 18.6733 25.3242 18.7404 23.8986V23.4212H23.5632C24.026 23.4186 24.4778 23.2827 24.862 23.0304C25.2463 22.778 25.5459 22.4205 25.7236 22.0024C25.9013 21.5844 25.9491 21.1244 25.861 20.6799C25.7728 20.2354 25.5528 19.8262 25.2282 19.5034ZM15.8696 23.8986C15.79 24.574 15.4471 25.1934 14.9123 25.6276C14.3776 26.0618 13.6921 26.2775 12.9989 26.2296C12.3056 26.2775 11.6202 26.0618 11.0854 25.6276C10.5506 25.1934 10.2077 24.574 10.1281 23.8986V23.4212H15.8696V23.8986ZM3.68332 20.6128L5.37706 18.9558C5.64571 18.6945 5.85886 18.3838 6.0042 18.0416C6.14955 17.6994 6.22423 17.3324 6.22393 16.9618V10.4041C6.22471 9.45686 6.43261 8.52071 6.83366 7.6585C7.23472 6.7963 7.81966 6.02799 8.54923 5.40515C9.26895 4.76719 10.1218 4.28985 11.0487 4.00618C11.9756 3.7225 12.9545 3.63926 13.9175 3.76222C15.5775 4.0259 17.0842 4.86735 18.1603 6.13166C19.2364 7.39597 19.8094 8.99802 19.7738 10.6429V16.9618C19.7716 17.3314 19.8441 17.6978 19.9869 18.04C20.1298 18.3822 20.3403 18.6934 20.6063 18.9558L22.3144 20.6128H3.68332Z" fill="white"/>
<circle cx="20.0938" cy="4.95703" r="3.5" fill="white" fill-opacity="0.864583" stroke="#FBC929"/>
</svg>
