<svg width="36" height="32" viewBox="0 0 36 32" fill="none" xmlns="http://www.w3.org/2000/svg">
<rect x="0.5" y="0.5" width="35" height="31" rx="15.5" fill="#FBC108"/>
<path d="M17 12C17 10.9391 17.4214 9.92172 18.1716 9.17157C18.9217 8.42143 19.9391 8 21 8C22.0609 8 23.0783 8.42143 23.8284 9.17157C24.5786 9.92172 25 10.9391 25 12V20H28L24 24L20 20H23V12C23 11.4696 22.7893 10.9609 22.4142 10.5858C22.0391 10.2107 21.5304 10 21 10C20.4696 10 19.9609 10.2107 19.5858 10.5858C19.2107 10.9609 19 11.4696 19 12V20C19 21.0609 18.5786 22.0783 17.8284 22.8284C17.0783 23.5786 16.0609 24 15 24C13.9391 24 12.9217 23.5786 12.1716 22.8284C11.4214 22.0783 11 21.0609 11 20V12H8L12 8L16 12H13V20C13 20.5304 13.2107 21.0391 13.5858 21.4142C13.9609 21.7893 14.4696 22 15 22C15.5304 22 16.0391 21.7893 16.4142 21.4142C16.7893 21.0391 17 20.5304 17 20V12Z" fill="white"/>
<rect x="0.5" y="0.5" width="35" height="31" rx="15.5" stroke="#363636"/>
</svg>
