<svg width="64" height="64" viewBox="0 0 64 64" fill="none" xmlns="http://www.w3.org/2000/svg">
<path d="M34.0715 4.07549C33.386 4.02489 32.699 3.99954 32.0117 3.9995V0C32.7978 0.000383262 33.5835 0.0297328 34.3674 0.087989L34.0715 4.07549ZM42.0865 5.87527C40.8044 5.38055 39.4877 4.98085 38.147 4.67942L39.0228 0.775903C40.5547 1.11986 42.0625 1.5758 43.5263 2.14373L42.0865 5.87527ZM47.5658 8.71491C46.9939 8.33356 46.4083 7.97336 45.81 7.63505L47.7817 4.15548C49.1492 4.93033 50.4579 5.80457 51.6973 6.77115L49.2376 9.92676C48.6953 9.50374 48.1377 9.10085 47.5658 8.71891V8.71491ZM54.9009 15.874C54.1097 14.7501 53.2368 13.686 52.2892 12.6904L55.1848 9.93076C56.2647 11.0706 57.2646 12.2905 58.1724 13.5703L54.9009 15.874ZM57.8765 21.2813C57.614 20.6473 57.3285 20.0229 57.0206 19.4096L60.5921 17.6098C61.2985 19.014 61.9 20.4684 62.3919 21.9613L58.5924 23.2131C58.3775 22.5606 58.1387 21.9163 57.8765 21.2813ZM59.9962 31.3081C59.9639 29.9336 59.8302 28.5634 59.5963 27.2086L63.5358 26.5287C63.8037 28.0725 63.9597 29.6403 63.9997 31.2081L60.0002 31.3081H59.9962ZM59.4723 37.4593C59.6043 36.7794 59.7123 36.1035 59.7962 35.4196L63.7677 35.9115C63.5756 37.4719 63.2682 39.016 62.8479 40.5309L58.9923 39.4631C59.1763 38.8032 59.3363 38.1352 59.4723 37.4593ZM55.6648 46.9741C56.4007 45.8143 57.0486 44.5984 57.6085 43.3426L61.2641 44.9624C60.6241 46.4022 59.8842 47.786 59.0443 49.1139L55.6648 46.9741ZM51.8092 51.7935C52.2972 51.3056 52.7651 50.8017 53.2091 50.2817L56.2407 52.8934C55.7273 53.4887 55.1923 54.065 54.6369 54.6212L51.8092 51.7935Z" fill="#FFC700"/>
<path d="M32.0085 3.9995C27.4046 3.99983 22.8718 5.13554 18.8117 7.30604C14.7515 9.47654 11.2893 12.6148 8.73163 16.4429C6.174 20.2711 4.5999 24.6708 4.14875 29.2526C3.69761 33.8343 4.38335 38.4566 6.14523 42.7101C7.90712 46.9635 10.6908 50.7168 14.2496 53.6375C17.8085 56.5582 22.0327 58.5562 26.5481 59.4544C31.0635 60.3527 35.7308 60.1236 40.1365 58.7873C44.5422 57.451 48.5504 55.0488 51.806 51.7935L54.6337 54.6212C50.9131 58.3438 46.3317 61.0913 41.2955 62.6202C36.2593 64.149 30.9237 64.4121 25.7615 63.386C20.5994 62.3599 15.77 60.0764 11.7012 56.7378C7.6325 53.3992 4.45008 49.1085 2.43593 44.246C0.421777 39.3835 -0.361914 34.0993 0.154292 28.8615C0.670499 23.6237 2.47066 18.5941 5.39529 14.2183C8.31992 9.84251 12.2787 6.25566 16.9209 3.77554C21.5631 1.29542 26.7453 -0.00139475 32.0085 1.12569e-06V3.9995Z" fill="#FFC700"/>
<path d="M30.0115 11.999C30.5418 11.999 31.0505 12.2097 31.4255 12.5847C31.8005 12.9598 32.0112 13.4684 32.0112 13.9988V34.8362L45.0016 42.2592C45.4487 42.529 45.7726 42.9629 45.904 43.4682C46.0354 43.9736 45.964 44.5103 45.7049 44.9637C45.4458 45.4171 45.0197 45.7511 44.5176 45.8945C44.0155 46.0378 43.4772 45.9791 43.0178 45.7308L29.0196 37.7318C28.7135 37.557 28.4591 37.3043 28.2821 36.9995C28.1051 36.6947 28.0118 36.3485 28.0117 35.996V13.9988C28.0117 13.4684 28.2224 12.9598 28.5974 12.5847C28.9725 12.2097 29.4811 11.999 30.0115 11.999Z" fill="#FFC700"/>
</svg>
