<svg width="35" height="35" viewBox="0 0 35 35" fill="none" xmlns="http://www.w3.org/2000/svg">
<rect width="35" height="35" rx="17.25" fill="#FBC108" fill-opacity="0.0646"/>
<path d="M23.8042 14.275L21.0742 16.55V12L23.8042 14.275Z" fill="#FBC108" fill-opacity="0.864583"/>
<path d="M11 13.625H22.05V14.925H11V13.625Z" fill="#FBC108" fill-opacity="0.864583"/>
<path d="M22.7 17.525H24V23.7H22.7V17.525ZM20.75 17.525H22.05V23.7H20.75V17.525ZM18.8 17.525H20.1V23.7H18.8V17.525ZM16.85 17.525H18.15V23.7H16.85V17.525ZM14.9 17.525H16.2V23.7H14.9V17.525ZM12.95 17.525H14.25V23.7H12.95V17.525ZM11 17.525H12.3V23.7H11V17.525Z" fill="#FFC700"/>
</svg>
