<svg width="35" height="35" viewBox="0 0 35 35" fill="none" xmlns="http://www.w3.org/2000/svg">
<rect width="35" height="35" rx="17.25" fill="#FBC108" fill-opacity="0.0646"/>
<path d="M12.8829 13.647H22.2971C22.4071 13.6469 22.517 13.6539 22.6261 13.6678C22.5891 13.4083 22.4999 13.1589 22.364 12.9348C22.228 12.7106 22.0481 12.5163 21.835 12.3636C21.6219 12.2108 21.3801 12.1028 21.1242 12.0461C20.8682 11.9893 20.6034 11.985 20.3457 12.0333L12.6034 13.3551H12.5945C12.1086 13.4481 11.6764 13.723 11.3863 14.1239C11.8233 13.813 12.3465 13.6463 12.8829 13.647V13.647ZM22.2971 14.353H12.8829C12.3837 14.3536 11.9051 14.5521 11.5521 14.9051C11.1991 15.2581 11.0005 15.7367 11 16.2359V21.8845C11.0005 22.3837 11.1991 22.8623 11.5521 23.2152C11.9051 23.5682 12.3837 23.7668 12.8829 23.7673H22.2971C22.7963 23.7668 23.2749 23.5682 23.6279 23.2152C23.9809 22.8623 24.1795 22.3837 24.18 21.8845V16.2359C24.1795 15.7367 23.9809 15.2581 23.6279 14.9051C23.2749 14.5521 22.7963 14.3536 22.2971 14.353V14.353ZM20.8997 20.0016C20.7135 20.0016 20.5315 19.9464 20.3767 19.8429C20.2219 19.7395 20.1012 19.5925 20.0299 19.4204C19.9587 19.2484 19.94 19.0591 19.9764 18.8765C20.0127 18.6939 20.1024 18.5261 20.234 18.3945C20.3657 18.2628 20.5334 18.1732 20.716 18.1368C20.8987 18.1005 21.088 18.1192 21.26 18.1904C21.432 18.2617 21.579 18.3823 21.6825 18.5371C21.7859 18.692 21.8411 18.874 21.8411 19.0602C21.8411 19.3099 21.742 19.5493 21.5654 19.7259C21.3888 19.9024 21.1494 20.0016 20.8997 20.0016Z" fill="#FBC827"/>
<path d="M11.0156 18.2217V15.2945C11.0156 14.6569 11.3687 13.5881 12.594 13.3566C13.634 13.1615 14.6637 13.1615 14.6637 13.1615C14.6637 13.1615 15.3403 13.6322 14.7813 13.6322C14.2224 13.6322 14.2371 14.353 14.7813 14.353C15.3256 14.353 14.7813 15.0444 14.7813 15.0444L12.5896 17.5303L11.0156 18.2217Z" fill="#FBC827"/>
</svg>

