<svg width="25" height="24" viewBox="0 0 25 24" fill="none" xmlns="http://www.w3.org/2000/svg">
<path d="M14.3566 7.85498H4.53796C3.45495 7.85498 2.57422 8.73572 2.57422 9.81872V19.6374C2.57422 20.7204 3.45495 21.6011 4.53796 21.6011H14.3566C15.4396 21.6011 16.3204 20.7204 16.3204 19.6374V9.81872C16.3204 8.73572 15.4396 7.85498 14.3566 7.85498Z" fill="#FBC108" fill-opacity="0.864583"/>
<path d="M20.2473 1.96375H10.4286C9.90777 1.96375 9.40828 2.17064 9.04001 2.53891C8.67174 2.90718 8.46484 3.40667 8.46484 3.92748V5.89122H16.3198C16.8406 5.89122 17.3401 6.09811 17.7084 6.46638C18.0766 6.83466 18.2835 7.33414 18.2835 7.85496V15.7099H20.2473C20.7681 15.7099 21.2676 15.503 21.6358 15.1347C22.0041 14.7665 22.211 14.267 22.211 13.7462V3.92748C22.211 3.40667 22.0041 2.90718 21.6358 2.53891C21.2676 2.17064 20.7681 1.96375 20.2473 1.96375Z" fill="#FBC108" fill-opacity="0.864583"/>
</svg>
