<svg width="20" height="21" viewBox="0 0 20 21" fill="none" xmlns="http://www.w3.org/2000/svg">
<path d="M19.705 14.2941C19.6121 14.2004 19.5014 14.126 19.3796 14.0752C19.2577 14.0244 19.127 13.9983 18.995 13.9983C18.863 13.9983 18.7323 14.0244 18.6104 14.0752C18.4886 14.126 18.378 14.2004 18.285 14.2941L15.995 16.5941V7.00409C15.995 6.20844 15.6789 5.44538 15.1163 4.88277C14.5537 4.32016 13.7907 4.00409 12.995 4.00409H3.40501L5.70501 1.71409C5.79825 1.62085 5.87221 1.51016 5.92267 1.38834C5.97313 1.26652 5.9991 1.13595 5.9991 1.00409C5.9991 0.872232 5.97313 0.741664 5.92267 0.619842C5.87221 0.49802 5.79825 0.38733 5.70501 0.294092C5.61178 0.200853 5.50108 0.126892 5.37926 0.0764319C5.25744 0.0259715 5.12687 0 4.99501 0C4.86315 0 4.73259 0.0259715 4.61076 0.0764319C4.48894 0.126892 4.37825 0.200853 4.28501 0.294092L0.285014 4.29409C0.193973 4.3892 0.122608 4.50134 0.0750135 4.62409C-0.0250045 4.86755 -0.0250045 5.14063 0.0750135 5.38409C0.122608 5.50684 0.193973 5.61899 0.285014 5.71409L4.28501 9.71409C4.37798 9.80782 4.48858 9.88221 4.61044 9.93298C4.7323 9.98375 4.863 10.0099 4.99501 10.0099C5.12703 10.0099 5.25773 9.98375 5.37959 9.93298C5.50145 9.88221 5.61205 9.80782 5.70501 9.71409C5.79874 9.62113 5.87314 9.51053 5.9239 9.38867C5.97467 9.26681 6.00081 9.1361 6.00081 9.00409C6.00081 8.87208 5.97467 8.74137 5.9239 8.61951C5.87314 8.49765 5.79874 8.38705 5.70501 8.29409L3.40501 6.00409H12.995C13.2602 6.00409 13.5146 6.10945 13.7021 6.29699C13.8897 6.48452 13.995 6.73888 13.995 7.00409V16.5941L11.705 14.2941C11.6118 14.2009 11.5011 14.1269 11.3793 14.0764C11.2574 14.026 11.1269 14 10.995 14C10.8632 14 10.7326 14.026 10.6108 14.0764C10.4889 14.1269 10.3783 14.2009 10.285 14.2941C10.1918 14.3873 10.1178 14.498 10.0674 14.6198C10.0169 14.7417 9.99092 14.8722 9.99092 15.0041C9.99092 15.136 10.0169 15.2665 10.0674 15.3883C10.1178 15.5102 10.1918 15.6209 10.285 15.7141L14.285 19.7141C14.3801 19.8051 14.4923 19.8765 14.615 19.9241C14.7347 19.977 14.8641 20.0043 14.995 20.0043C15.1259 20.0043 15.2553 19.977 15.375 19.9241C15.4978 19.8765 15.6099 19.8051 15.705 19.7141L19.705 15.7141C19.7987 15.6211 19.8731 15.5105 19.9239 15.3887C19.9747 15.2668 20.0008 15.1361 20.0008 15.0041C20.0008 14.8721 19.9747 14.7414 19.9239 14.6195C19.8731 14.4977 19.7987 14.3871 19.705 14.2941Z" fill="#FFC700"/>
</svg>
