<svg width="876" height="262" viewBox="0 0 876 262" fill="none" xmlns="http://www.w3.org/2000/svg">
<g clip-path="url(#clip0_947_3169)">
<path d="M85.1523 216.15H868.532" stroke="black" stroke-width="1.31"/>
<path d="M124.316 224.01V216.15" stroke="black" stroke-width="1.31"/>
<path d="M124.078 239.166C123.237 239.166 122.521 238.937 121.929 238.48C121.337 238.018 120.885 237.35 120.572 236.476C120.26 235.597 120.103 234.537 120.103 233.294C120.103 232.058 120.26 231.003 120.572 230.128C120.889 229.25 121.343 228.58 121.934 228.119C122.53 227.654 123.244 227.421 124.078 227.421C124.912 227.421 125.624 227.654 126.216 228.119C126.812 228.58 127.266 229.25 127.578 230.128C127.895 231.003 128.053 232.058 128.053 233.294C128.053 234.537 127.896 235.597 127.584 236.476C127.271 237.35 126.819 238.018 126.227 238.48C125.636 238.937 124.919 239.166 124.078 239.166ZM124.078 237.938C124.912 237.938 125.559 237.536 126.021 236.732C126.482 235.929 126.713 234.782 126.713 233.294C126.713 232.304 126.607 231.461 126.395 230.765C126.186 230.069 125.885 229.539 125.49 229.174C125.1 228.809 124.629 228.627 124.078 228.627C123.252 228.627 122.606 229.034 122.141 229.849C121.676 230.661 121.443 231.809 121.443 233.294C121.443 234.284 121.547 235.125 121.756 235.817C121.964 236.509 122.264 237.036 122.655 237.397C123.049 237.758 123.524 237.938 124.078 237.938Z" fill="black"/>
<path d="M202.656 224.01V216.15" stroke="black" stroke-width="1.31"/>
<path d="M203.276 227.577V239.01H201.891V229.029H201.824L199.033 230.882V229.475L201.891 227.577H203.276Z" fill="black"/>
<path d="M280.996 224.01V216.15" stroke="black" stroke-width="1.31"/>
<path d="M277.182 239.01V238.005L280.956 233.874C281.399 233.39 281.764 232.97 282.05 232.613C282.337 232.252 282.549 231.913 282.687 231.597C282.828 231.277 282.899 230.942 282.899 230.592C282.899 230.19 282.802 229.842 282.608 229.548C282.419 229.254 282.158 229.027 281.827 228.867C281.496 228.707 281.123 228.627 280.71 228.627C280.271 228.627 279.888 228.718 279.56 228.9C279.237 229.079 278.985 229.33 278.807 229.654C278.632 229.978 278.544 230.357 278.544 230.793H277.227C277.227 230.123 277.381 229.535 277.69 229.029C277.999 228.523 278.42 228.128 278.952 227.845C279.488 227.562 280.089 227.421 280.755 227.421C281.425 227.421 282.019 227.562 282.536 227.845C283.053 228.128 283.459 228.51 283.753 228.99C284.047 229.47 284.194 230.004 284.194 230.592C284.194 231.012 284.117 231.424 283.965 231.825C283.816 232.224 283.556 232.668 283.183 233.16C282.815 233.647 282.303 234.243 281.648 234.946L279.08 237.693V237.782H284.395V239.01H277.182Z" fill="black"/>
<path d="M359.328 224.01V216.15" stroke="black" stroke-width="1.31"/>
<path d="M359.632 239.166C358.895 239.166 358.238 239.04 357.661 238.787C357.088 238.534 356.632 238.182 356.293 237.732C355.959 237.278 355.776 236.751 355.746 236.152H357.153C357.183 236.52 357.309 236.838 357.533 237.106C357.756 237.371 358.048 237.575 358.409 237.72C358.77 237.866 359.17 237.938 359.609 237.938C360.101 237.938 360.536 237.853 360.916 237.681C361.295 237.51 361.593 237.272 361.809 236.967C362.025 236.662 362.133 236.308 362.133 235.906C362.133 235.486 362.028 235.115 361.82 234.795C361.612 234.472 361.306 234.218 360.904 234.036C360.503 233.854 360.011 233.763 359.431 233.763H358.515V232.534H359.431C359.885 232.534 360.283 232.453 360.625 232.289C360.971 232.125 361.241 231.894 361.435 231.597C361.632 231.299 361.731 230.949 361.731 230.547C361.731 230.16 361.645 229.823 361.474 229.537C361.303 229.25 361.061 229.027 360.748 228.867C360.439 228.707 360.075 228.627 359.654 228.627C359.26 228.627 358.887 228.699 358.538 228.844C358.191 228.986 357.909 229.192 357.689 229.464C357.469 229.732 357.35 230.056 357.332 230.435H355.992C356.014 229.836 356.195 229.312 356.533 228.861C356.872 228.407 357.315 228.054 357.862 227.801C358.413 227.548 359.018 227.421 359.676 227.421C360.383 227.421 360.99 227.564 361.496 227.851C362.002 228.134 362.391 228.508 362.663 228.973C362.935 229.438 363.07 229.94 363.07 230.48C363.07 231.124 362.901 231.673 362.562 232.127C362.228 232.581 361.772 232.895 361.195 233.07V233.16C361.917 233.279 362.481 233.586 362.886 234.081C363.292 234.572 363.495 235.18 363.495 235.906C363.495 236.528 363.325 237.086 362.987 237.581C362.652 238.072 362.194 238.459 361.613 238.742C361.033 239.025 360.372 239.166 359.632 239.166Z" fill="black"/>
<path d="M437.668 224.01V216.15" stroke="black" stroke-width="1.31"/>
<path d="M433.802 236.665V235.527L438.826 227.577H439.653V229.341H439.094L435.298 235.348V235.437H442.064V236.665H433.802ZM439.184 239.01V236.319V235.789V227.577H440.501V239.01H439.184Z" fill="black"/>
<path d="M516.008 224.01V216.15" stroke="black" stroke-width="1.31"/>
<path d="M515.744 239.166C515.089 239.166 514.499 239.036 513.974 238.776C513.449 238.515 513.029 238.158 512.712 237.704C512.396 237.25 512.223 236.732 512.193 236.152H513.533C513.585 236.669 513.82 237.097 514.236 237.436C514.657 237.771 515.159 237.938 515.744 237.938C516.213 237.938 516.629 237.828 516.994 237.609C517.363 237.389 517.651 237.088 517.859 236.704C518.072 236.317 518.178 235.88 518.178 235.393C518.178 234.894 518.068 234.449 517.848 234.058C517.632 233.664 517.335 233.353 516.955 233.126C516.575 232.899 516.142 232.784 515.654 232.78C515.305 232.776 514.945 232.83 514.577 232.942C514.209 233.05 513.905 233.189 513.667 233.361L512.372 233.204L513.064 227.577H519.004V228.805H514.225L513.823 232.177H513.89C514.125 231.991 514.419 231.837 514.772 231.714C515.126 231.591 515.494 231.53 515.878 231.53C516.577 231.53 517.201 231.697 517.748 232.032C518.299 232.363 518.73 232.817 519.043 233.394C519.359 233.971 519.517 234.63 519.517 235.37C519.517 236.1 519.354 236.751 519.026 237.324C518.702 237.894 518.256 238.344 517.686 238.675C517.117 239.003 516.469 239.166 515.744 239.166Z" fill="black"/>
<path d="M594.348 224.01V216.15" stroke="black" stroke-width="1.31"/>
<path d="M594.184 239.166C593.715 239.159 593.246 239.07 592.777 238.898C592.308 238.727 591.88 238.439 591.493 238.033C591.106 237.624 590.796 237.071 590.561 236.375C590.327 235.675 590.209 234.797 590.209 233.74C590.209 232.728 590.304 231.831 590.494 231.05C590.684 230.264 590.959 229.604 591.32 229.068C591.681 228.528 592.117 228.119 592.627 227.84C593.14 227.561 593.719 227.421 594.363 227.421C595.003 227.421 595.572 227.549 596.071 227.806C596.573 228.059 596.983 228.413 597.299 228.867C597.615 229.321 597.82 229.844 597.913 230.435H596.551C596.424 229.922 596.179 229.496 595.814 229.157C595.449 228.818 594.966 228.649 594.363 228.649C593.477 228.649 592.779 229.034 592.269 229.805C591.763 230.575 591.508 231.656 591.504 233.048H591.594C591.802 232.732 592.05 232.462 592.336 232.239C592.627 232.012 592.947 231.837 593.296 231.714C593.646 231.591 594.017 231.53 594.407 231.53C595.062 231.53 595.662 231.693 596.205 232.021C596.748 232.345 597.184 232.793 597.511 233.366C597.839 233.936 598.002 234.589 598.002 235.326C598.002 236.033 597.844 236.68 597.528 237.268C597.212 237.853 596.767 238.318 596.194 238.664C595.624 239.006 594.954 239.174 594.184 239.166ZM594.184 237.938C594.653 237.938 595.073 237.821 595.446 237.587C595.822 237.352 596.117 237.038 596.333 236.643C596.553 236.249 596.663 235.809 596.663 235.326C596.663 234.853 596.557 234.423 596.344 234.036C596.136 233.645 595.848 233.335 595.479 233.104C595.114 232.873 594.698 232.758 594.229 232.758C593.875 232.758 593.546 232.828 593.241 232.97C592.935 233.108 592.667 233.297 592.437 233.539C592.21 233.781 592.031 234.058 591.901 234.371C591.771 234.68 591.705 235.006 591.705 235.348C591.705 235.802 591.812 236.226 592.024 236.621C592.24 237.015 592.534 237.333 592.906 237.575C593.282 237.817 593.708 237.938 594.184 237.938Z" fill="black"/>
<path d="M672.688 224.01V216.15" stroke="black" stroke-width="1.31"/>
<path d="M670.308 239.01L675.422 228.895V228.805H669.527V227.577H676.851V228.872L671.76 239.01H670.308Z" fill="black"/>
<path d="M751.02 224.01V216.15" stroke="black" stroke-width="1.31"/>
<path d="M750.783 239.166C750.017 239.166 749.339 239.03 748.751 238.759C748.167 238.483 747.711 238.106 747.384 237.626C747.056 237.142 746.894 236.591 746.898 235.973C746.894 235.489 746.989 235.043 747.183 234.633C747.376 234.22 747.64 233.876 747.975 233.601C748.314 233.322 748.692 233.145 749.109 233.07V233.003C748.562 232.862 748.126 232.555 747.802 232.082C747.479 231.606 747.319 231.064 747.322 230.458C747.319 229.877 747.466 229.358 747.763 228.9C748.061 228.443 748.47 228.082 748.991 227.817C749.516 227.553 750.113 227.421 750.783 227.421C751.446 227.421 752.038 227.553 752.559 227.817C753.08 228.082 753.489 228.443 753.787 228.9C754.088 229.358 754.241 229.877 754.244 230.458C754.241 231.064 754.075 231.606 753.748 232.082C753.424 232.555 752.994 232.862 752.458 233.003V233.07C752.871 233.145 753.243 233.322 753.575 233.601C753.906 233.876 754.17 234.22 754.367 234.633C754.564 235.043 754.665 235.489 754.669 235.973C754.665 236.591 754.497 237.142 754.166 237.626C753.839 238.106 753.383 238.483 752.799 238.759C752.218 239.03 751.546 239.166 750.783 239.166ZM750.783 237.938C751.301 237.938 751.747 237.854 752.123 237.687C752.499 237.52 752.789 237.283 752.994 236.978C753.199 236.673 753.303 236.316 753.307 235.906C753.303 235.474 753.191 235.093 752.972 234.762C752.752 234.431 752.452 234.17 752.073 233.98C751.697 233.79 751.267 233.696 750.783 233.696C750.296 233.696 749.86 233.79 749.477 233.98C749.097 234.17 748.798 234.431 748.578 234.762C748.362 235.093 748.256 235.474 748.26 235.906C748.256 236.316 748.355 236.673 748.556 236.978C748.761 237.283 749.053 237.52 749.432 237.687C749.812 237.854 750.262 237.938 750.783 237.938ZM750.783 232.512C751.193 232.512 751.556 232.43 751.872 232.266C752.192 232.103 752.443 231.874 752.626 231.58C752.808 231.286 752.901 230.942 752.905 230.547C752.901 230.16 752.81 229.823 752.631 229.537C752.452 229.246 752.205 229.023 751.889 228.867C751.572 228.707 751.204 228.627 750.783 228.627C750.355 228.627 749.981 228.707 749.661 228.867C749.341 229.023 749.094 229.246 748.919 229.537C748.744 229.823 748.658 230.16 748.662 230.547C748.658 230.942 748.746 231.286 748.924 231.58C749.107 231.874 749.358 232.103 749.678 232.266C749.998 232.43 750.367 232.512 750.783 232.512Z" fill="black"/>
<path d="M829.359 224.01V216.15" stroke="black" stroke-width="1.31"/>
<path d="M829.039 227.421C829.508 227.425 829.977 227.514 830.446 227.689C830.915 227.864 831.343 228.154 831.73 228.56C832.117 228.962 832.428 229.511 832.662 230.207C832.897 230.903 833.014 231.775 833.014 232.825C833.014 233.841 832.917 234.743 832.724 235.532C832.534 236.317 832.259 236.98 831.898 237.52C831.54 238.059 831.105 238.469 830.591 238.748C830.081 239.027 829.505 239.166 828.861 239.166C828.221 239.166 827.649 239.04 827.147 238.787C826.648 238.53 826.239 238.175 825.919 237.72C825.603 237.263 825.4 236.732 825.31 236.129H826.673C826.795 236.654 827.039 237.088 827.404 237.43C827.772 237.769 828.258 237.938 828.861 237.938C829.743 237.938 830.439 237.553 830.949 236.783C831.462 236.012 831.719 234.924 831.719 233.517H831.63C831.421 233.83 831.174 234.099 830.887 234.326C830.601 234.553 830.282 234.728 829.933 234.851C829.583 234.974 829.211 235.035 828.816 235.035C828.161 235.035 827.56 234.873 827.013 234.55C826.47 234.222 826.034 233.774 825.707 233.204C825.383 232.631 825.221 231.976 825.221 231.239C825.221 230.54 825.377 229.9 825.69 229.319C826.006 228.735 826.449 228.269 827.019 227.923C827.592 227.577 828.265 227.41 829.039 227.421ZM829.039 228.649C828.571 228.649 828.148 228.766 827.772 229.001C827.4 229.232 827.104 229.544 826.885 229.939C826.669 230.329 826.561 230.763 826.561 231.239C826.561 231.716 826.665 232.149 826.873 232.54C827.086 232.927 827.374 233.236 827.739 233.467C828.107 233.694 828.526 233.807 828.995 233.807C829.348 233.807 829.678 233.738 829.983 233.601C830.288 233.459 830.554 233.268 830.781 233.026C831.012 232.78 831.192 232.503 831.323 232.194C831.453 231.881 831.518 231.556 831.518 231.217C831.518 230.77 831.41 230.352 831.194 229.961C830.982 229.57 830.688 229.254 830.312 229.012C829.94 228.77 829.516 228.649 829.039 228.649Z" fill="black"/>
<path d="M85.1484 6.55005V216.15" stroke="black" stroke-width="1.31"/>
<path d="M77.2891 216.15H85.1491" stroke="black" stroke-width="1.31"/>
<path d="M65.3453 215.586C64.5042 215.586 63.7878 215.358 63.1961 214.9C62.6044 214.438 62.1522 213.77 61.8396 212.896C61.527 212.017 61.3707 210.957 61.3707 209.714C61.3707 208.478 61.527 207.423 61.8396 206.549C62.1559 205.67 62.6099 205 63.2017 204.539C63.7971 204.074 64.5117 203.841 65.3453 203.841C66.1789 203.841 66.8916 204.074 67.4834 204.539C68.0788 205 68.5329 205.67 68.8455 206.549C69.1618 207.423 69.32 208.478 69.32 209.714C69.32 210.957 69.1637 212.017 68.8511 212.896C68.5384 213.77 68.0863 214.438 67.4945 214.9C66.9028 215.358 66.1864 215.586 65.3453 215.586ZM65.3453 214.358C66.1789 214.358 66.8265 213.956 67.288 213.153C67.7495 212.349 67.9802 211.202 67.9802 209.714C67.9802 208.724 67.8741 207.881 67.662 207.185C67.4536 206.489 67.1521 205.959 66.7577 205.594C66.3669 205.229 65.8961 205.047 65.3453 205.047C64.5191 205.047 63.8734 205.454 63.4082 206.269C62.943 207.081 62.7104 208.229 62.7104 209.714C62.7104 210.704 62.8146 211.545 63.023 212.237C63.2314 212.929 63.531 213.456 63.9218 213.817C64.3163 214.178 64.7908 214.358 65.3453 214.358Z" fill="black"/>
<path d="M77.2891 163.75H85.1491" stroke="black" stroke-width="1.31"/>
<path d="M42.8859 163.03V162.025L46.6595 157.894C47.1024 157.41 47.4671 156.99 47.7537 156.633C48.0403 156.272 48.2524 155.933 48.3901 155.617C48.5315 155.297 48.6022 154.962 48.6022 154.612C48.6022 154.21 48.5055 153.862 48.3119 153.568C48.1221 153.274 47.8616 153.047 47.5304 152.887C47.1992 152.727 46.827 152.647 46.4139 152.647C45.9748 152.647 45.5914 152.738 45.2639 152.92C44.9402 153.099 44.689 153.35 44.5103 153.674C44.3354 153.998 44.248 154.377 44.248 154.813H42.9305C42.9305 154.143 43.085 153.555 43.3938 153.049C43.7027 152.543 44.1233 152.148 44.6555 151.865C45.1914 151.582 45.7924 151.441 46.4586 151.441C47.1285 151.441 47.7221 151.582 48.2394 151.865C48.7567 152.148 49.1623 152.53 49.4563 153.01C49.7503 153.49 49.8973 154.024 49.8973 154.612C49.8973 155.032 49.821 155.444 49.6685 155.845C49.5196 156.244 49.2591 156.688 48.8869 157.18C48.5185 157.667 48.0068 158.263 47.3518 158.966L44.7839 161.713V161.802H50.0983V163.03H42.8859ZM55.9765 163.186C55.3215 163.186 54.7317 163.056 54.2069 162.796C53.6822 162.535 53.2616 162.178 52.9453 161.724C52.629 161.27 52.4559 160.752 52.4261 160.172H53.7659C53.818 160.689 54.0525 161.117 54.4693 161.456C54.8898 161.791 55.3923 161.958 55.9765 161.958C56.4455 161.958 56.8623 161.848 57.227 161.629C57.5954 161.409 57.8839 161.108 58.0923 160.725C58.3044 160.337 58.4105 159.9 58.4105 159.413C58.4105 158.914 58.3007 158.469 58.0811 158.078C57.8653 157.684 57.5675 157.373 57.1879 157.146C56.8083 156.919 56.3748 156.804 55.8872 156.8C55.5374 156.796 55.1783 156.85 54.8098 156.962C54.4414 157.07 54.1381 157.209 53.8999 157.381L52.6048 157.224L53.297 151.597H59.2367V152.825H54.4581L54.0562 156.197H54.1232C54.3577 156.011 54.6517 155.857 55.0052 155.734C55.3588 155.611 55.7272 155.55 56.1105 155.55C56.8102 155.55 57.4335 155.717 57.9806 156.052C58.5314 156.383 58.9631 156.837 59.2757 157.414C59.5921 157.991 59.7502 158.65 59.7502 159.39C59.7502 160.12 59.5865 160.771 59.259 161.344C58.9352 161.914 58.4886 162.364 57.9192 162.695C57.3498 163.023 56.7023 163.186 55.9765 163.186ZM65.6969 163.186C64.8558 163.186 64.1394 162.957 63.5477 162.5C62.9559 162.038 62.5038 161.37 62.1911 160.496C61.8785 159.617 61.7222 158.557 61.7222 157.314C61.7222 156.078 61.8785 155.023 62.1911 154.148C62.5075 153.27 62.9615 152.6 63.5532 152.139C64.1487 151.674 64.8632 151.441 65.6969 151.441C66.5305 151.441 67.2432 151.674 67.8349 152.139C68.4304 152.6 68.8844 153.27 69.197 154.148C69.5134 155.023 69.6715 156.078 69.6715 157.314C69.6715 158.557 69.5152 159.617 69.2026 160.496C68.89 161.37 68.4378 162.038 67.8461 162.5C67.2544 162.957 66.538 163.186 65.6969 163.186ZM65.6969 161.958C66.5305 161.958 67.1781 161.556 67.6395 160.752C68.101 159.949 68.3318 158.802 68.3318 157.314C68.3318 156.324 68.2257 155.481 68.0136 154.785C67.8052 154.089 67.5037 153.559 67.1092 153.194C66.7185 152.829 66.2477 152.647 65.6969 152.647C64.8707 152.647 64.225 153.054 63.7598 153.869C63.2946 154.681 63.062 155.829 63.062 157.314C63.062 158.304 63.1662 159.145 63.3746 159.837C63.583 160.529 63.8826 161.056 64.2734 161.417C64.6679 161.778 65.1424 161.958 65.6969 161.958Z" fill="black"/>
<path d="M77.2891 111.35H85.1491" stroke="black" stroke-width="1.31"/>
<path d="M46.1515 110.786C45.4965 110.786 44.9067 110.656 44.3819 110.396C43.8572 110.135 43.4366 109.778 43.1203 109.324C42.804 108.87 42.6309 108.353 42.6011 107.772H43.9409C43.993 108.289 44.2275 108.717 44.6443 109.056C45.0648 109.391 45.5673 109.558 46.1515 109.558C46.6205 109.558 47.0373 109.449 47.402 109.229C47.7704 109.009 48.0589 108.708 48.2673 108.325C48.4794 107.938 48.5855 107.5 48.5855 107.013C48.5855 106.514 48.4757 106.069 48.2561 105.679C48.0403 105.284 47.7425 104.973 47.3629 104.746C46.9833 104.519 46.5498 104.404 46.0622 104.4C45.7124 104.396 45.3533 104.45 44.9848 104.562C44.6164 104.67 44.3131 104.81 44.0749 104.981L42.7798 104.824L43.472 99.1974H49.4117V100.426H44.6331L44.2312 103.797H44.2982C44.5327 103.611 44.8267 103.457 45.1802 103.334C45.5338 103.211 45.9022 103.15 46.2855 103.15C46.9852 103.15 47.6085 103.317 48.1556 103.652C48.7064 103.983 49.1381 104.437 49.4507 105.014C49.7671 105.591 49.9252 106.25 49.9252 106.99C49.9252 107.72 49.7615 108.371 49.434 108.944C49.1102 109.514 48.6636 109.964 48.0942 110.295C47.5248 110.623 46.8773 110.786 46.1515 110.786ZM55.8719 110.786C55.0308 110.786 54.3144 110.558 53.7227 110.1C53.1309 109.638 52.6787 108.97 52.3661 108.096C52.0535 107.217 51.8972 106.157 51.8972 104.914C51.8972 103.678 52.0535 102.623 52.3661 101.749C52.6825 100.87 53.1365 100.2 53.7282 99.7389C54.3237 99.2737 55.0382 99.0411 55.8719 99.0411C56.7055 99.0411 57.4182 99.2737 58.0099 99.7389C58.6054 100.2 59.0594 100.87 59.372 101.749C59.6884 102.623 59.8465 103.678 59.8465 104.914C59.8465 106.157 59.6902 107.217 59.3776 108.096C59.065 108.97 58.6128 109.638 58.0211 110.1C57.4294 110.558 56.713 110.786 55.8719 110.786ZM55.8719 109.558C56.7055 109.558 57.3531 109.156 57.8145 108.353C58.276 107.549 58.5068 106.402 58.5068 104.914C58.5068 103.924 58.4007 103.081 58.1886 102.385C57.9802 101.689 57.6787 101.159 57.2842 100.794C56.8935 100.429 56.4227 100.247 55.8719 100.247C55.0457 100.247 54.4 100.654 53.9348 101.469C53.4696 102.281 53.237 103.429 53.237 104.914C53.237 105.904 53.3412 106.745 53.5496 107.437C53.758 108.129 54.0576 108.656 54.4484 109.017C54.8429 109.378 55.3174 109.558 55.8719 109.558ZM65.6969 110.786C64.8558 110.786 64.1394 110.558 63.5477 110.1C62.9559 109.638 62.5037 108.97 62.1911 108.096C61.8785 107.217 61.7222 106.157 61.7222 104.914C61.7222 103.678 61.8785 102.623 62.1911 101.749C62.5075 100.87 62.9615 100.2 63.5532 99.7389C64.1487 99.2737 64.8632 99.0411 65.6969 99.0411C66.5305 99.0411 67.2432 99.2737 67.8349 99.7389C68.4304 100.2 68.8844 100.87 69.197 101.749C69.5134 102.623 69.6715 103.678 69.6715 104.914C69.6715 106.157 69.5152 107.217 69.2026 108.096C68.89 108.97 68.4378 109.638 67.8461 110.1C67.2544 110.558 66.538 110.786 65.6969 110.786ZM65.6969 109.558C66.5305 109.558 67.1781 109.156 67.6395 108.353C68.101 107.549 68.3318 106.402 68.3318 104.914C68.3318 103.924 68.2257 103.081 68.0136 102.385C67.8052 101.689 67.5037 101.159 67.1092 100.794C66.7185 100.429 66.2477 100.247 65.6969 100.247C64.8707 100.247 64.225 100.654 63.7598 101.469C63.2946 102.281 63.062 103.429 63.062 104.914C63.062 105.904 63.1662 106.745 63.3746 107.437C63.583 108.129 63.8826 108.656 64.2734 109.017C64.6679 109.378 65.1424 109.558 65.6969 109.558Z" fill="black"/>
<path d="M77.2891 58.95H85.1491" stroke="black" stroke-width="1.31"/>
<path d="M43.2425 58.23L48.356 48.1147V48.0254H42.461V46.7973H49.7851V48.0924L44.694 58.23H43.2425ZM55.2851 58.3863C54.6301 58.3863 54.0403 58.256 53.5155 57.9955C52.9908 57.735 52.5702 57.3777 52.2539 56.9237C51.9376 56.4697 51.7645 55.9524 51.7347 55.3718H53.0745C53.1266 55.8891 53.3611 56.3171 53.7779 56.6557C54.1984 56.9907 54.7008 57.1582 55.2851 57.1582C55.7541 57.1582 56.1709 57.0484 56.5356 56.8288C56.904 56.6092 57.1925 56.3078 57.4009 55.9245C57.613 55.5374 57.7191 55.1001 57.7191 54.6126C57.7191 54.1139 57.6093 53.6692 57.3897 53.2784C57.1738 52.8839 56.8761 52.5732 56.4965 52.3461C56.1169 52.1191 55.6833 52.0038 55.1958 52C54.846 51.9963 54.4869 52.0503 54.1184 52.1619C53.75 52.2699 53.4467 52.4094 53.2085 52.5806L51.9134 52.4243L52.6056 46.7973H58.5453V48.0254H53.7667L53.3648 51.3971H53.4318C53.6662 51.2111 53.9603 51.0566 54.3138 50.9338C54.6674 50.811 55.0358 50.7496 55.4191 50.7496C56.1188 50.7496 56.7421 50.9171 57.2892 51.252C57.84 51.5832 58.2717 52.0373 58.5843 52.6141C58.9007 53.1909 59.0588 53.8497 59.0588 54.5903C59.0588 55.3197 58.8951 55.971 58.5676 56.5441C58.2438 57.1135 57.7972 57.5638 57.2278 57.895C56.6584 58.2225 56.0108 58.3863 55.2851 58.3863ZM65.0055 58.3863C64.1644 58.3863 63.448 58.1574 62.8562 57.6997C62.2645 57.2382 61.8123 56.5702 61.4997 55.6956C61.1871 54.8173 61.0308 53.7566 61.0308 52.5136C61.0308 51.278 61.1871 50.223 61.4997 49.3484C61.8161 48.4701 62.2701 47.8002 62.8618 47.3387C63.4573 46.8735 64.1718 46.6409 65.0055 46.6409C65.8391 46.6409 66.5518 46.8735 67.1435 47.3387C67.739 47.8002 68.193 48.4701 68.5056 49.3484C68.822 50.223 68.9801 51.278 68.9801 52.5136C68.9801 53.7566 68.8238 54.8173 68.5112 55.6956C68.1986 56.5702 67.7464 57.2382 67.1547 57.6997C66.563 58.1574 65.8465 58.3863 65.0055 58.3863ZM65.0055 57.1582C65.8391 57.1582 66.4867 56.7562 66.9481 55.9524C67.4096 55.1485 67.6404 54.0023 67.6404 52.5136C67.6404 51.5237 67.5343 50.6807 67.3222 49.9848C67.1137 49.2889 66.8123 48.7585 66.4178 48.3938C66.027 48.0291 65.5563 47.8467 65.0055 47.8467C64.1793 47.8467 63.5336 48.2543 63.0684 49.0693C62.6032 49.8806 62.3706 51.0287 62.3706 52.5136C62.3706 53.5036 62.4748 54.3446 62.6832 55.0369C62.8916 55.7291 63.1912 56.2557 63.582 56.6167C63.9764 56.9777 64.451 57.1582 65.0055 57.1582Z" fill="black"/>
<path d="M77.2891 6.55005H85.1491" stroke="black" stroke-width="1.31"/>
<path d="M38.1704 -0.106799V11.3259H36.786V1.34462H36.719L33.9278 3.19797V1.79121L36.786 -0.106799H38.1704ZM45.1875 11.4822C44.3464 11.4822 43.63 11.2534 43.0383 10.7956C42.4466 10.3341 41.9944 9.6661 41.6818 8.79152C41.3692 7.91323 41.2128 6.85258 41.2128 5.60956C41.2128 4.374 41.3692 3.31893 41.6818 2.44435C41.9981 1.56606 42.4521 0.896169 43.0439 0.434692C43.6393 -0.0305069 44.3539 -0.263106 45.1875 -0.263106C46.0211 -0.263106 46.7338 -0.0305069 47.3256 0.434692C47.921 0.896169 48.375 1.56606 48.6877 2.44435C49.004 3.31893 49.1622 4.374 49.1622 5.60956C49.1622 6.85258 49.0059 7.91323 48.6932 8.79152C48.3806 9.6661 47.9285 10.3341 47.3367 10.7956C46.745 11.2534 46.0286 11.4822 45.1875 11.4822ZM45.1875 10.2541C46.0211 10.2541 46.6687 9.85218 47.1302 9.04831C47.5917 8.24445 47.8224 7.0982 47.8224 5.60956C47.8224 4.61962 47.7163 3.77668 47.5042 3.08074C47.2958 2.38481 46.9943 1.85448 46.5998 1.48976C46.2091 1.12505 45.7383 0.942689 45.1875 0.942689C44.3613 0.942689 43.7156 1.3502 43.2504 2.16523C42.7852 2.97654 42.5526 4.12465 42.5526 5.60956C42.5526 6.59951 42.6568 7.44059 42.8652 8.1328C43.0736 8.82502 43.3732 9.35162 43.764 9.71262C44.1585 10.0736 44.633 10.2541 45.1875 10.2541ZM55.0125 11.4822C54.1714 11.4822 53.455 11.2534 52.8633 10.7956C52.2716 10.3341 51.8194 9.6661 51.5068 8.79152C51.1942 7.91323 51.0378 6.85258 51.0378 5.60956C51.0378 4.374 51.1942 3.31893 51.5068 2.44435C51.8231 1.56606 52.2771 0.896169 52.8689 0.434692C53.4643 -0.0305069 54.1789 -0.263106 55.0125 -0.263106C55.8461 -0.263106 56.5588 -0.0305069 57.1506 0.434692C57.746 0.896169 58.2 1.56606 58.5127 2.44435C58.829 3.31893 58.9872 4.374 58.9872 5.60956C58.9872 6.85258 58.8309 7.91323 58.5182 8.79152C58.2056 9.6661 57.7535 10.3341 57.1617 10.7956C56.57 11.2534 55.8536 11.4822 55.0125 11.4822ZM55.0125 10.2541C55.8461 10.2541 56.4937 9.85218 56.9552 9.04831C57.4166 8.24445 57.6474 7.0982 57.6474 5.60956C57.6474 4.61962 57.5413 3.77668 57.3292 3.08074C57.1208 2.38481 56.8193 1.85448 56.4248 1.48976C56.0341 1.12505 55.5633 0.942689 55.0125 0.942689C54.1863 0.942689 53.5406 1.3502 53.0754 2.16523C52.6102 2.97654 52.3776 4.12465 52.3776 5.60956C52.3776 6.59951 52.4818 7.44059 52.6902 8.1328C52.8986 8.82502 53.1982 9.35162 53.589 9.71262C53.9835 10.0736 54.458 10.2541 55.0125 10.2541ZM64.8375 11.4822C63.9964 11.4822 63.28 11.2534 62.6883 10.7956C62.0966 10.3341 61.6444 9.6661 61.3318 8.79152C61.0192 7.91323 60.8628 6.85258 60.8628 5.60956C60.8628 4.374 61.0192 3.31893 61.3318 2.44435C61.6481 1.56606 62.1021 0.896169 62.6939 0.434692C63.2893 -0.0305069 64.0039 -0.263106 64.8375 -0.263106C65.6711 -0.263106 66.3838 -0.0305069 66.9756 0.434692C67.571 0.896169 68.025 1.56606 68.3377 2.44435C68.654 3.31893 68.8122 4.374 68.8122 5.60956C68.8122 6.85258 68.6559 7.91323 68.3432 8.79152C68.0306 9.6661 67.5785 10.3341 66.9867 10.7956C66.395 11.2534 65.6786 11.4822 64.8375 11.4822ZM64.8375 10.2541C65.6711 10.2541 66.3187 9.85218 66.7802 9.04831C67.2417 8.24445 67.4724 7.0982 67.4724 5.60956C67.4724 4.61962 67.3663 3.77668 67.1542 3.08074C66.9458 2.38481 66.6443 1.85448 66.2498 1.48976C65.8591 1.12505 65.3883 0.942689 64.8375 0.942689C64.0113 0.942689 63.3656 1.3502 62.9004 2.16523C62.4352 2.97654 62.2026 4.12465 62.2026 5.60956C62.2026 6.59951 62.3068 7.44059 62.5152 8.1328C62.7236 8.82502 63.0232 9.35162 63.414 9.71262C63.8085 10.0736 64.283 10.2541 64.8375 10.2541Z" fill="black"/>
<path d="M85.1523 216.15H868.532" stroke="#CCCCCC" stroke-width="1.31"/>
<path d="M85.1523 163.75H868.532" stroke="#CCCCCC" stroke-width="1.31"/>
<path d="M85.1523 111.35H868.532" stroke="#CCCCCC" stroke-width="1.31"/>
<path d="M85.1523 58.95H868.532" stroke="#CCCCCC" stroke-width="1.31"/>
<path d="M85.1523 6.55005H868.532" stroke="#CCCCCC" stroke-width="1.31"/>
<path d="M124.32 6.55005V216.15" stroke="#CCCCCC" stroke-width="1.31"/>
<path d="M202.66 6.55005V216.15" stroke="#CCCCCC" stroke-width="1.31"/>
<path d="M280.996 6.55005V216.15" stroke="#CCCCCC" stroke-width="1.31"/>
<path d="M359.336 6.55005V216.15" stroke="#CCCCCC" stroke-width="1.31"/>
<path d="M437.676 6.55005V216.15" stroke="#CCCCCC" stroke-width="1.31"/>
<path d="M516.008 6.55005V216.15" stroke="#CCCCCC" stroke-width="1.31"/>
<path d="M594.348 6.55005V216.15" stroke="#CCCCCC" stroke-width="1.31"/>
<path d="M672.688 6.55005V216.15" stroke="#CCCCCC" stroke-width="1.31"/>
<path d="M751.027 6.55005V216.15" stroke="#CCCCCC" stroke-width="1.31"/>
<path d="M829.367 6.55005V216.15" stroke="#CCCCCC" stroke-width="1.31"/>
<path d="M85.1523 6.55005V216.15" stroke="#CCCCCC" stroke-width="1.31"/>
<path d="M868.531 6.55005V216.15" stroke="#CCCCCC" stroke-width="1.31"/>
<path d="M92.9844 33.5884H120.494V216.15H92.9844V33.5884Z" fill="#E3B307"/>
<path d="M171.324 70.2686H198.834V216.15H171.324V70.2686Z" fill="#E3B307"/>
<path d="M249.66 186.387H277.17V216.15H249.66V186.387Z" fill="#E3B307"/>
<path d="M327.996 14.5149H355.506V216.15H327.996V14.5149Z" fill="#E3B307"/>
<path d="M406.336 152.851H433.846V216.15H406.336V152.851Z" fill="#E3B307"/>
<path d="M484.672 99.4028H512.182V216.15H484.672V99.4028Z" fill="#E3B307"/>
<path d="M563.016 147.611H590.526V216.15H563.016V147.611Z" fill="#E3B307"/>
<path d="M641.352 167.942H668.862V216.15H641.352V167.942Z" fill="#E3B307"/>
<path d="M719.684 194.98H747.194V216.15H719.684V194.98Z" fill="#E3B307"/>
<path d="M798.027 101.289H825.537V216.15H798.027V101.289Z" fill="#E3B307"/>
<path d="M125.734 122.459H153.244V216.15H125.734V122.459Z" fill="#FBC108" fill-opacity="0.864583"/>
<path d="M204.074 18.2878H231.584V216.15H204.074V18.2878Z" fill="#FBC108" fill-opacity="0.864583"/>
<path d="M282.41 124.345H309.92V216.15H282.41V124.345Z" fill="#FBC108" fill-opacity="0.864583"/>
<path d="M360.746 152.012H388.256V216.15H360.746V152.012Z" fill="#FBC108" fill-opacity="0.864583"/>
<path d="M439.086 123.926H466.596V216.15H439.086V123.926Z" fill="#FBC108" fill-opacity="0.864583"/>
<path d="M517.422 15.3533H544.932V216.15H517.422V15.3533Z" fill="#FBC108" fill-opacity="0.864583"/>
<path d="M595.766 179.68H623.276V216.15H595.766V179.68Z" fill="#FBC108" fill-opacity="0.864583"/>
<path d="M674.102 91.0188H701.612V216.15H674.102V91.0188Z" fill="#FBC108" fill-opacity="0.864583"/>
<path d="M752.434 8.43652H779.944V216.15H752.434V8.43652Z" fill="#FBC108" fill-opacity="0.864583"/>
<path d="M830.777 195.819H858.287V216.15H830.777V195.819Z" fill="#FBC108" fill-opacity="0.864583"/>
</g>
<defs>
<clipPath id="clip0_947_3169">
<rect width="875.08" height="262" fill="white"/>
</clipPath>
</defs>
</svg>
