<svg width="35" height="39" viewBox="0 0 35 39" fill="none" xmlns="http://www.w3.org/2000/svg">
<path d="M34.0836 25.1499L30.58 21.7033V13.2106C30.6267 10.057 29.5053 6.99331 27.4232 4.58533C25.341 2.17736 22.4386 0.587692 19.2518 0.109866C17.4023 -0.12841 15.5222 0.0219207 13.7368 0.550827C11.9514 1.07973 10.3018 1.97505 8.89817 3.17705C7.4945 4.37904 6.36901 5.86007 5.59679 7.52131C4.82456 9.18256 4.42336 10.9858 4.41996 12.8108V21.7033L0.916373 25.1499C0.476296 25.5876 0.177864 26.1425 0.0583853 26.7452C-0.0610933 27.3479 0.00368268 27.9717 0.244615 28.5386C0.485547 29.1055 0.891947 29.5904 1.41301 29.9326C1.93407 30.2747 2.54667 30.4591 3.17424 30.4625H9.71426V31.1099C9.80518 33.0431 10.6757 34.8621 12.1351 36.1685C13.5945 37.4748 15.5237 38.1619 17.5 38.0793C19.4763 38.1619 21.4055 37.4748 22.8649 36.1685C24.3243 34.8621 25.1948 33.0431 25.2857 31.1099V30.4625H31.8258C32.4533 30.4591 33.0659 30.2747 33.587 29.9326C34.1081 29.5904 34.5145 29.1055 34.7554 28.5386C34.9963 27.9717 35.0611 27.3479 34.9416 26.7452C34.8221 26.1425 34.5237 25.5876 34.0836 25.1499ZM21.3929 31.1099C21.2849 32.0259 20.8199 32.8657 20.0947 33.4546C19.3696 34.0434 18.4401 34.3358 17.5 34.2709C16.5599 34.3358 15.6304 34.0434 14.9053 33.4546C14.1801 32.8657 13.7151 32.0259 13.6071 31.1099V30.4625H21.3929V31.1099ZM4.86764 26.6542L7.16443 24.4072C7.52874 24.0529 7.81777 23.6316 8.01487 23.1675C8.21197 22.7035 8.31323 22.2058 8.31283 21.7033V12.8108C8.31389 11.5262 8.59581 10.2567 9.13966 9.08753C9.68351 7.91834 10.4767 6.87648 11.4661 6.03187C12.442 5.16677 13.5985 4.51947 14.8555 4.1348C16.1124 3.75012 17.4398 3.63724 18.7457 3.80398C20.9967 4.16154 23.0399 5.30259 24.4992 7.01706C25.9584 8.73152 26.7354 10.904 26.6872 13.1345V21.7033C26.6842 22.2045 26.7824 22.7013 26.9761 23.1653C27.1699 23.6293 27.4553 24.0514 27.8161 24.4072L30.1324 26.6542H4.86764Z" fill="#B7B2B2"/>
<circle cx="20" cy="4" r="3.5" fill="#FBC108" fill-opacity="0.864583" stroke="#FCFCFC"/>
</svg>
